<?xml version="1.0" standalone="no"?>
<!DOCTYPE svg PUBLIC "-//W3C//DTD SVG 1.1//EN" "http://www.w3.org/Graphics/SVG/1.1/DTD/svg11.dtd" >
<svg>
<metadata>
Created by FontForge 20090622 at Wed Mar 25 18:04:43 2020
 By deploy user
Copyright (c) 1990 Adobe Systems Incorporated.  All Rights Reserved.NeuzeitS is a registered trademark of Linotype AG and/or its subsidiaries.
</metadata>
<defs>
<font id="NeuzeitSLT-BookHeavy" horiz-adv-x="556" >
  <font-face 
    font-family="NeuzeitS LT Book"
    font-weight="700"
    font-stretch="normal"
    units-per-em="1000"
    panose-1="2 0 9 3 4 0 0 2 0 3"
    ascent="800"
    descent="-200"
    x-height="514"
    cap-height="752"
    bbox="-171 -234 1000 981"
    underline-thickness="50"
    underline-position="-75"
    unicode-range="U+0020-U+FB02"
  />
<missing-glyph horiz-adv-x="278" 
 />
    <glyph glyph-name=".notdef" horiz-adv-x="278" 
 />
    <glyph glyph-name="space" unicode=" " horiz-adv-x="278" 
 />
    <glyph glyph-name="space" unicode="&#xa0;" horiz-adv-x="278" 
 />
    <glyph glyph-name="quotedbl" unicode="&#x22;" horiz-adv-x="333" 
d="M8 752h104v-278h-104v278zM221 752h104v-278h-104v278z" />
    <glyph glyph-name="numbersign" unicode="#" 
d="M342 438h-102l-17 -136h102zM122 216h-89v86h101l17 136h-88v86h100l28 216h89l-28 -216h102l28 216h89l-28 -216h80v-86h-92l-17 -136h79v-86h-91l-29 -216h-88l28 216h-102l-29 -216h-88z" />
    <glyph glyph-name="dollar" unicode="$" 
d="M250 642q-13 -3 -26 -8t-23.5 -15t-17 -26.5t-6.5 -41.5t7.5 -41t19 -26t24 -15.5t22.5 -9.5v183zM250 319q-21 5 -56.5 18t-70 38t-59.5 64.5t-25 98.5q0 95 54 149t157 65v77h54v-77q13 -1 33.5 -4t43 -10.5t45.5 -21t41.5 -36.5t30.5 -57t14 -82h-138q-4 31 -10 49.5
t-15 29t-20 15t-25 7.5v-198q48 -13 88 -30.5t69.5 -44.5t46 -65.5t16.5 -93.5q0 -45 -12 -78.5t-31 -57.5t-43 -39.5t-48.5 -25.5t-47 -14.5t-38.5 -6.5v-112h-54v112q-14 1 -35.5 4.5t-45 11.5t-48 22t-44 38t-32 59t-13.5 85h138q1 -13 3 -29.5t9.5 -32t23 -28
t44.5 -16.5v217zM304 101q38 4 60 32t22 70q0 24 -6 40.5t-16.5 28t-25.5 20t-34 16.5v-207z" />
    <glyph glyph-name="percent" unicode="%" horiz-adv-x="1000" 
d="M670 761h82l-431 -782h-86zM716 68q18 0 29 9.5t17 25t8.5 35.5t2.5 41t-2.5 41t-8.5 35.5t-17 25t-29 9.5t-29 -9.5t-17 -25t-8.5 -35.5t-2.5 -41t2.5 -41t8.5 -35.5t17 -25t29 -9.5zM716 -12q-36 0 -66.5 11.5t-53 35.5t-35 60t-12.5 84t12.5 84t35 60t53 35.5
t66.5 11.5t66.5 -11.5t53 -35.5t35 -60t12.5 -84t-12.5 -84t-35 -60t-53 -35.5t-66.5 -11.5zM284 370q-36 0 -66.5 11.5t-53 35.5t-35 60t-12.5 84t12.5 84t35 60t53 35.5t66.5 11.5t66.5 -11.5t53 -35.5t35 -60t12.5 -84t-12.5 -84t-35 -60t-53 -35.5t-66.5 -11.5zM284 450
q18 0 29 9.5t17 25t8.5 35.5t2.5 41t-2.5 41t-8.5 35.5t-17 25t-29 9.5t-29 -9.5t-17 -25t-8.5 -35.5t-2.5 -41t2.5 -41t8.5 -35.5t17 -25t29 -9.5z" />
    <glyph glyph-name="ampersand" unicode="&#x26;" horiz-adv-x="722" 
d="M672 384q-5 -43 -10.5 -75.5t-14.5 -59.5t-21 -51.5t-30 -51.5l117 -146h-165l-42 54q-31 -24 -83 -46t-119 -22q-62 0 -109.5 18.5t-80 50t-49.5 74t-17 90.5q0 40 12.5 75t33.5 63t48 49.5t57 34.5q-27 48 -39.5 80.5t-12.5 63.5q0 33 13.5 63t38 53.5t59.5 37t77 13.5
q55 0 91.5 -17t58 -40.5t30.5 -49.5t9 -44q0 -70 -37.5 -119t-97.5 -77l120 -150q6 9 12 24.5t10 33t6.5 36t2.5 35.5h132zM404 591q0 29 -20 43t-41 14q-26 0 -45 -15.5t-19 -43.5q0 -15 9.5 -36t35.5 -59q23 16 38.5 28t24.5 23.5t13 22t4 23.5zM270 346
q-25 -18 -40.5 -34.5t-23.5 -32t-11 -30t-3 -27.5q0 -26 10.5 -47t27 -36t38 -23t44.5 -8q37 0 65 11.5t47 30.5z" />
    <glyph glyph-name="quotesingle" unicode="'" horiz-adv-x="222" 
d="M59 752h104v-278h-104v278z" />
    <glyph glyph-name="parenleft" unicode="(" horiz-adv-x="333" 
d="M230 -199q-7 7 -24 26.5t-39 50.5t-46 73.5t-43.5 95t-32.5 115t-13 133.5t13 133.5t32.5 115t43.5 95t46 73.5t39 50.5t24 26.5l88 -70q-32 -39 -60.5 -83t-51 -95t-35.5 -112t-13 -134q0 -74 13 -134.5t35.5 -111.5t51 -95t60.5 -83z" />
    <glyph glyph-name="parenright" unicode=")" horiz-adv-x="333" 
d="M103 789q7 -7 24 -26.5t39 -50.5t46 -73.5t43.5 -95t32.5 -115t13 -133.5t-13 -133.5t-32.5 -115t-43.5 -95t-46 -73.5t-39 -50.5t-24 -26.5l-88 70q31 39 60 83t51.5 95t35.5 111.5t13 134.5q0 73 -13 134t-35.5 112t-51.5 95t-60 83z" />
    <glyph glyph-name="asterisk" unicode="*" 
d="M275 499l-73 -116l-73 51l82 109l-128 37l24 81l127 -43l-4 134h90l-4 -136l127 49l30 -84l-133 -39l86 -105l-75 -53z" />
    <glyph glyph-name="plus" unicode="+" horiz-adv-x="600" 
d="M248 506h104v-201h201v-104h-201v-201h-104v201h-201v104h201v201z" />
    <glyph glyph-name="comma" unicode="," horiz-adv-x="278" 
d="M85 162l141 -46l-128 -286l-94 31z" />
    <glyph glyph-name="hyphen" unicode="-" horiz-adv-x="333" 
d="M20 329h293v-134h-293v134z" />
    <glyph glyph-name="hyphen" unicode="&#xad;" horiz-adv-x="333" 
d="M20 329h293v-134h-293v134z" />
    <glyph glyph-name="period" unicode="." horiz-adv-x="278" 
d="M55 72q0 35 24.5 59.5t59.5 24.5t59.5 -24.5t24.5 -59.5t-24.5 -59.5t-59.5 -24.5t-59.5 24.5t-24.5 59.5z" />
    <glyph glyph-name="slash" unicode="/" horiz-adv-x="444" 
d="M314 766h110l-294 -780h-110z" />
    <glyph glyph-name="zero" unicode="0" 
d="M373 370q0 49 -2.5 94.5t-12 81t-28.5 57t-52 21.5t-52 -21.5t-28.5 -57t-12 -81t-2.5 -94.5q0 -56 4 -103t15 -80.5t29 -52t47 -18.5q28 0 46.5 18.5t29.5 52t15 80.5t4 103zM33 370q0 28 1.5 67t8.5 81.5t22.5 84.5t42.5 75t68.5 53.5t101.5 20.5t101.5 -20.5
t68.5 -53.5t42.5 -75t22.5 -84.5t8.5 -81.5t1.5 -67q0 -42 -4 -86.5t-14 -87t-27.5 -80.5t-45 -66.5t-65.5 -45t-89 -16.5t-89 16.5t-65.5 45t-45 66.5t-27.5 80.5t-14 87t-4 86.5z" />
    <glyph glyph-name="one" unicode="1" 
d="M248 565q-30 -21 -71.5 -46t-94.5 -48v135l43 24t52 32.5t54.5 41t49.5 48.5h111v-752h-144v565z" />
    <glyph glyph-name="two" unicode="2" 
d="M31 113l271 290q39 43 52 72.5t13 58.5q0 16 -5.5 32.5t-17 29t-28 20.5t-38.5 8q-46 0 -72 -32.5t-26 -101.5h-138v16q0 68 22.5 115t57 76t76.5 42t80 13q53 0 97 -16.5t75.5 -45t49 -67.5t17.5 -85q0 -35 -8 -66t-27.5 -63.5t-51 -69t-78.5 -82.5l-128 -129h301v-128
h-494v113z" />
    <glyph glyph-name="three" unicode="3" 
d="M174 448l150 164h-269v128h439v-122l-166 -168q46 0 83 -16.5t63 -45t40 -67.5t14 -84q0 -55 -19 -101t-53 -79t-81.5 -51t-103.5 -18q-35 0 -75.5 9.5t-76.5 34t-61.5 66.5t-29.5 107l144 9q1 -33 13.5 -52t28.5 -29.5t32 -13.5t25 -3q23 0 42.5 9.5t34 26t22.5 37
t8 43.5q0 26 -9.5 47t-25 36t-36 23t-41.5 8q-29 0 -53.5 -8.5t-38.5 -15.5v126z" />
    <glyph glyph-name="four" unicode="4" 
d="M21 309l267 431h163v-446h84v-110h-84v-184h-138v184h-292v125zM313 588h-2l-177 -294h179v294z" />
    <glyph glyph-name="five" unicode="5" 
d="M66 740h422v-128h-298l-10 -169q29 23 61.5 32t66.5 9q40 0 79 -14t70 -43.5t50 -74.5t19 -108q0 -51 -16.5 -97.5t-48.5 -81.5t-79 -56t-108 -21q-31 0 -69.5 7t-74.5 27t-63.5 57t-36.5 97l146 13q4 -12 10 -25t16.5 -23.5t27.5 -17.5t44 -7q16 0 34 5.5t33 19.5t25 39
t10 63q0 24 -8 45t-21.5 36t-32 23.5t-38.5 8.5q-29 0 -52.5 -9t-42.5 -36l-129 7z" />
    <glyph glyph-name="six" unicode="6" 
d="M384 229q0 19 -5 40.5t-16.5 38.5t-30.5 28.5t-48 11.5t-48 -11.5t-30.5 -28.5t-16.5 -38.5t-5 -40.5q0 -20 5 -41t16.5 -38t30.5 -28.5t48 -11.5t48 11.5t30.5 28.5t16.5 38t5 41zM367 556q0 9 -3.5 20.5t-12 22t-23.5 18t-38 7.5q-39 0 -61.5 -19t-34 -50t-16 -71
t-7.5 -82h2l21 24.5t26.5 22t36.5 15.5t51 6q41 0 80.5 -14t70.5 -42.5t50 -72t19 -103.5q0 -59 -18.5 -105.5t-51 -78.5t-77 -49t-96.5 -17q-64 0 -108 21.5t-72.5 55.5t-44 76t-22.5 83.5t-8.5 77t-1.5 57.5q0 64 9.5 133t38 127t81 95.5t138.5 37.5q58 0 98.5 -18
t66 -45.5t37.5 -60.5t14 -63z" />
    <glyph glyph-name="seven" unicode="7" 
d="M33 740h490v-127q-22 -34 -54.5 -94t-65.5 -139.5t-63 -176t-48 -203.5h-158q24 126 56 221t64.5 167.5t63 126.5l53.5 97h-338v128z" />
    <glyph glyph-name="eight" unicode="8" 
d="M33 224q0 76 33 117.5t85 61.5q-42 17 -69 53t-27 93q0 43 14.5 80.5t43 64.5t70 42.5t95.5 15.5t95.5 -15.5t70 -42.5t43 -64.5t14.5 -80.5q0 -57 -27 -93t-69 -53q52 -20 85 -61.5t33 -117.5q0 -63 -21.5 -107.5t-56.5 -73t-79 -42t-88 -13.5t-88 13.5t-79 42t-56.5 73
t-21.5 107.5zM278 450q39 0 62 25t23 68t-23 68t-62 25t-62 -25t-23 -68t23 -68t62 -25zM379 224q0 35 -10.5 57.5t-26 35.5t-33 18t-31.5 5t-31.5 -5t-33 -18t-26 -35.5t-10.5 -57.5q0 -49 26.5 -81.5t74.5 -32.5t74.5 32.5t26.5 81.5z" />
    <glyph glyph-name="nine" unicode="9" 
d="M372 511q0 19 -5 40.5t-16.5 38.5t-30.5 28.5t-48 11.5t-48 -11.5t-30.5 -28.5t-16.5 -38.5t-5 -40.5q0 -20 5 -41t16.5 -38t30.5 -28.5t48 -11.5t48 11.5t30.5 28.5t16.5 38t5 41zM189 184q0 -9 3.5 -21t12 -22.5t23.5 -17.5t38 -7q39 0 61.5 19t34 50t16 71t7.5 82h-2
l-21 -24.5t-26.5 -22t-36.5 -15.5t-51 -6q-41 0 -80.5 13.5t-70.5 42t-50 72.5t-19 104q0 59 18.5 105.5t51 78.5t77 49t96.5 17q64 0 108 -21.5t72.5 -55.5t44 -76t22.5 -83.5t8.5 -77.5t1.5 -57q0 -42 -4 -88t-14.5 -89.5t-29 -82.5t-48 -68.5t-72 -47t-99.5 -17.5
q-58 0 -98.5 18t-66 45.5t-38 60.5t-13.5 63z" />
    <glyph glyph-name="colon" unicode=":" horiz-adv-x="278" 
d="M139 -12q-35 0 -59.5 24.5t-24.5 59.5t24.5 59.5t59.5 24.5t59.5 -24.5t24.5 -59.5t-24.5 -59.5t-59.5 -24.5zM139 339q-35 0 -59.5 24.5t-24.5 59.5t24.5 59.5t59.5 24.5t59.5 -24.5t24.5 -59.5t-24.5 -59.5t-59.5 -24.5z" />
    <glyph glyph-name="semicolon" unicode=";" horiz-adv-x="278" 
d="M55 423q0 35 24.5 59.5t59.5 24.5t59.5 -24.5t24.5 -59.5t-24.5 -59.5t-59.5 -24.5t-59.5 24.5t-24.5 59.5zM226 116l-128 -286l-94 31l81 301z" />
    <glyph glyph-name="semicolon" unicode="&#x37e;" horiz-adv-x="278" 
d="M55 423q0 35 24.5 59.5t59.5 24.5t59.5 -24.5t24.5 -59.5t-24.5 -59.5t-59.5 -24.5t-59.5 24.5t-24.5 59.5zM226 116l-128 -286l-94 31l81 301z" />
    <glyph glyph-name="less" unicode="&#x3c;" horiz-adv-x="600" 
d="M553 -8l-506 218v86l506 218v-102l-372 -159l372 -159v-102z" />
    <glyph glyph-name="equal" unicode="=" horiz-adv-x="600" 
d="M553 92h-506v104h506v-104zM553 310h-506v104h506v-104z" />
    <glyph glyph-name="greater" unicode="&#x3e;" horiz-adv-x="600" 
d="M419 253l-372 159v102l506 -218v-86l-506 -218v102z" />
    <glyph glyph-name="question" unicode="?" 
d="M262 -12q-35 0 -59.5 24.5t-24.5 59.5t24.5 59.5t59.5 24.5t59.5 -24.5t24.5 -59.5t-24.5 -59.5t-59.5 -24.5zM187 236v31q0 40 12.5 69.5t32 52.5t41.5 42t41.5 39t32 42.5t12.5 52.5q0 41 -25 60t-57 19q-44 0 -65 -25.5t-21 -67.5v-12h-138q0 53 16 95t45.5 71.5
t71.5 45t95 15.5q42 0 82 -12t71 -36.5t50 -62t19 -89.5q0 -43 -13 -74.5t-33 -56t-43 -44t-43 -39.5t-33 -42.5t-13 -52.5v-21h-138z" />
    <glyph glyph-name="at" unicode="@" horiz-adv-x="800" 
d="M542 569h90l-59 -262q-2 -10 -4.5 -21t-2.5 -22q0 -22 16 -22q21 0 42 12.5t38.5 36t28 56.5t10.5 75q0 63 -22 111t-60.5 81t-90.5 49.5t-113 16.5q-66 0 -119.5 -23.5t-92 -64.5t-59 -97t-20.5 -121q0 -68 22.5 -123.5t63.5 -95.5t97 -61.5t124 -21.5q64 0 119 22
t97 58h92q-54 -79 -135.5 -122.5t-179.5 -43.5q-91 0 -165.5 29.5t-127.5 81.5t-82 123.5t-29 155.5q0 83 31.5 154t85.5 123.5t126.5 82.5t154.5 30q70 0 135.5 -22.5t116 -64.5t81 -101t30.5 -131q0 -55 -14.5 -99t-38 -77t-52 -56.5t-57.5 -38.5t-55 -22t-43 -7
q-27 0 -41.5 13.5t-19.5 32.5h-2q-14 -19 -39 -32.5t-58 -13.5q-39 0 -72 13.5t-56 37.5t-36 57t-13 73q0 48 14.5 94t43 82t69 58t93.5 22q38 0 70 -16.5t55 -53.5zM498 393q0 38 -23.5 62.5t-60.5 24.5q-26 0 -47 -12.5t-36 -33t-23 -46t-8 -51.5q0 -35 21 -60.5t57 -25.5
q25 0 46.5 13t38 33t26 45.5t9.5 50.5z" />
    <glyph glyph-name="A" unicode="A" horiz-adv-x="722" 
d="M496 157h-275l-49 -157h-162l274 752h158l270 -752h-165zM360 571h-2l-95 -292h193z" />
    <glyph glyph-name="B" unicode="B" horiz-adv-x="667" 
d="M324 443q54 0 86.5 23.5t32.5 68.5q0 47 -30.5 68t-75.5 21h-104v-181h91zM332 128q71 0 100 27.5t29 67.5q0 18 -6 35.5t-20 31.5t-36 22.5t-55 8.5h-111v-193h99zM83 752h267q60 0 105.5 -14.5t76 -41.5t46 -64.5t15.5 -83.5q0 -31 -8 -55.5t-22 -43.5t-32.5 -33
t-38.5 -23v-2q25 -6 47.5 -20.5t40 -36t27.5 -50.5t10 -64q0 -52 -19 -92.5t-53.5 -69t-82.5 -43.5t-106 -15h-273v752z" />
    <glyph glyph-name="C" unicode="C" horiz-adv-x="778" 
d="M576 485q-17 73 -63 110t-111 37q-46 0 -82 -20.5t-61.5 -55.5t-39 -82t-13.5 -99q0 -120 54 -187.5t146 -67.5q27 0 53 9t48.5 26t39.5 41.5t27 56.5l154 -11q-39 -127 -125.5 -191.5t-202.5 -64.5q-77 0 -141 25.5t-110.5 75t-72.5 122t-26 167.5q0 85 25.5 156.5
t72 123.5t110.5 81t142 29q59 0 112 -15t96 -48t73.5 -84.5t45.5 -123.5z" />
    <glyph glyph-name="D" unicode="D" horiz-adv-x="778" 
d="M360 128q58 0 98 22.5t65.5 58t37 80t11.5 88.5q0 47 -11 91.5t-37 79t-69 55.5t-107 21h-115v-496h127zM83 752h283q85 0 152.5 -24.5t114 -72.5t71 -118t24.5 -161q0 -90 -29 -160t-78 -118t-114 -73t-137 -25h-287v752z" />
    <glyph glyph-name="E" unicode="E" horiz-adv-x="611" 
d="M83 752h480v-134h-330v-171h321v-134h-321v-179h330v-134h-480v752z" />
    <glyph glyph-name="F" unicode="F" 
d="M83 752h441v-134h-291v-171h284v-134h-284v-313h-150v752z" />
    <glyph glyph-name="G" unicode="G" horiz-adv-x="833" 
d="M436 405h347q-2 -105 -30.5 -183.5t-77.5 -131t-115 -78.5t-144 -26q-84 0 -151.5 32.5t-115 86.5t-73.5 124.5t-26 146.5t26 146.5t73.5 124.5t115 86.5t151.5 32.5q93 0 154 -25.5t99.5 -61.5t58.5 -76.5t31 -70.5l-157 -10q-20 50 -63.5 80t-122.5 30
q-44 0 -82.5 -17.5t-67 -50.5t-44.5 -80.5t-16 -107.5q0 -51 15.5 -97t44 -81.5t69 -56.5t91.5 -21q45 0 78.5 14.5t57 37.5t36.5 50.5t18 54.5h-180v128z" />
    <glyph glyph-name="H" unicode="H" horiz-adv-x="778" 
d="M545 313h-312v-313h-150v752h150v-305h312v305h150v-752h-150v313z" />
    <glyph glyph-name="I" unicode="I" horiz-adv-x="332" 
d="M91 752h150v-752h-150v752z" />
    <glyph glyph-name="J" unicode="J" horiz-adv-x="444" 
d="M24 752h344v-496q0 -89 -24.5 -141t-65.5 -79t-94 -34.5t-110 -7.5h-48v128h77q27 0 48.5 4.5t36.5 16t22.5 31t7.5 48.5v396h-194v134z" />
    <glyph glyph-name="K" unicode="K" horiz-adv-x="667" 
d="M476 752h179l-259 -361l264 -391h-187l-238 369h-2v-369h-150v752h150v-353h2z" />
    <glyph glyph-name="L" unicode="L" 
d="M83 752h150v-612h289v-140h-439v752z" />
    <glyph glyph-name="M" unicode="M" horiz-adv-x="944" 
d="M717 502h-2l-201 -502h-84l-201 492h-2v-492h-144v752h171l218 -512l218 512h171v-752h-144v502z" />
    <glyph glyph-name="N" unicode="N" horiz-adv-x="778" 
d="M229 513h-2v-513h-144v752h161l305 -505h2v505h144v-752h-155z" />
    <glyph glyph-name="O" unicode="O" horiz-adv-x="832" 
d="M50 376q0 76 24.5 146.5t71 124.5t114.5 86.5t156 32.5t156 -32.5t114.5 -86.5t71 -124.5t24.5 -146.5t-24.5 -146.5t-71 -124.5t-114.5 -86.5t-156 -32.5t-156 32.5t-114.5 86.5t-71 124.5t-24.5 146.5zM626 376q0 51 -13 97t-39.5 81.5t-66 56.5t-91.5 21
q-53 0 -92 -21t-65.5 -56.5t-39.5 -81.5t-13 -97t13 -97t39.5 -81.5t65.5 -56.5t92 -21q52 0 91.5 21t66 56.5t39.5 81.5t13 97z" />
    <glyph glyph-name="P" unicode="P" horiz-adv-x="611" 
d="M83 752h245q44 0 90.5 -11.5t84.5 -39t62 -73.5t24 -115q0 -65 -22 -110t-57.5 -73.5t-80 -41.5t-89.5 -13h-107v-275h-150v752zM317 403q37 0 61 10t37.5 26t18.5 35.5t5 38.5t-7 39t-21.5 36t-37.5 26t-55 10h-85v-221h84z" />
    <glyph glyph-name="Q" unicode="Q" horiz-adv-x="833" 
d="M521 287l69 -59q18 30 27 69t9 79q0 51 -13 97t-39.5 81.5t-66 56.5t-91.5 21q-53 0 -92 -21t-65.5 -56.5t-39.5 -81.5t-13 -97t13 -97t39.5 -81.5t65.5 -56.5t92 -21q23 0 48 5.5t41 13.5l-66 58zM616 40q-87 -54 -200 -54q-88 0 -156 32.5t-114.5 86.5t-71 124.5
t-24.5 146.5t24.5 146.5t71 124.5t114.5 86.5t156 32.5t156 -32.5t114.5 -86.5t71 -124.5t24.5 -146.5q0 -67 -20 -131.5t-57 -115.5l91 -78l-87 -94z" />
    <glyph glyph-name="R" unicode="R" horiz-adv-x="667" 
d="M333 419q39 0 64 9.5t39.5 24t20 33t5.5 36.5q0 20 -6 38.5t-21 32.5t-41 22.5t-66 8.5h-95v-205h100zM321 297h-88v-297h-150v752h281q59 0 105.5 -17.5t78 -47.5t48 -71t16.5 -88q0 -30 -8 -62.5t-25.5 -62t-44 -52.5t-62.5 -34l175 -317h-179z" />
    <glyph glyph-name="S" unicode="S" horiz-adv-x="667" 
d="M447 554q0 39 -32.5 61.5t-77.5 22.5q-57 0 -88.5 -22.5t-31.5 -60.5q0 -20 8.5 -34.5t21 -25t28 -18t29.5 -11.5l138 -44q37 -12 68.5 -29.5t54.5 -42t35.5 -58t12.5 -76.5q0 -35 -13.5 -75t-45.5 -74.5t-84.5 -57.5t-130.5 -23q-65 0 -111.5 13t-78.5 33.5t-50.5 46.5
t-28.5 52t-13 50t-3 41l150 3q0 -30 11 -51t29.5 -34.5t43.5 -19.5t52 -6q19 0 40.5 5t40 15t30.5 25.5t12 37.5q0 15 -4 27t-14 22t-27.5 19.5t-45.5 19.5l-164 59q-31 11 -57 30t-44.5 43.5t-29 53.5t-10.5 61q0 36 13.5 77t44 76t80.5 58t123 23q87 0 140 -25t81.5 -59
t38 -69t9.5 -56z" />
    <glyph glyph-name="T" unicode="T" horiz-adv-x="610" 
d="M230 618h-198v134h546v-134h-198v-618h-150v618z" />
    <glyph glyph-name="U" unicode="U" horiz-adv-x="778" 
d="M552 752h150v-440q0 -88 -26 -150t-69 -101t-100 -57t-118 -18q-62 0 -118.5 18t-99.5 57t-69 101t-26 150v440h150v-441q0 -94 41 -142.5t122 -48.5t122 48.5t41 142.5v441z" />
    <glyph glyph-name="V" unicode="V" horiz-adv-x="667" 
d="M495 752h162l-244 -752h-158l-245 752h165l161 -553h2z" />
    <glyph glyph-name="W" unicode="W" horiz-adv-x="1000" 
d="M503 524h-2l-124 -524h-159l-194 752h160l117 -553h2l118 553h162l123 -553h2l109 553h159l-192 -752h-159z" />
    <glyph glyph-name="X" unicode="X" horiz-adv-x="667" 
d="M332 253l-144 -253h-180l237 380l-222 372h179l137 -254l136 254h176l-225 -372l233 -380h-185z" />
    <glyph glyph-name="Y" unicode="Y" horiz-adv-x="611" 
d="M436 752h165l-219 -451v-301h-150v301l-222 451h175l123 -289z" />
    <glyph glyph-name="Z" unicode="Z" horiz-adv-x="611" 
d="M36 118l349 500h-325v134h515v-118l-350 -500h350v-134h-539v118z" />
    <glyph glyph-name="bracketleft" unicode="[" horiz-adv-x="333" 
d="M74 782h243v-98h-117v-778h117v-98h-243v974z" />
    <glyph glyph-name="backslash" unicode="\" horiz-adv-x="444" 
d="M20 766h110l294 -780h-110z" />
    <glyph glyph-name="bracketright" unicode="]" horiz-adv-x="333" 
d="M259 -192h-243v98h117v778h-117v98h243v-974z" />
    <glyph glyph-name="asciicircum" unicode="^" horiz-adv-x="600" 
d="M253 740h94l187 -385h-104l-130 280l-130 -280h-104z" />
    <glyph glyph-name="underscore" unicode="_" horiz-adv-x="500" 
d="M0 -75h500v-50h-500v50z" />
    <glyph glyph-name="grave" unicode="`" horiz-adv-x="278" 
d="M24 742h135l88 -140h-83z" />
    <glyph glyph-name="a" unicode="a" horiz-adv-x="611" 
d="M406 67h-2q-36 -47 -83.5 -64t-92.5 -17q-30 0 -62 8t-58.5 26.5t-43 48.5t-16.5 74q0 21 6 46.5t28 48.5t66 40.5t119 22.5l133 8v24q0 46 -26.5 68.5t-74.5 22.5q-45 0 -70 -20.5t-27 -55.5h-138q2 30 14.5 61.5t40.5 58t73 43.5t113 17q48 0 90 -9.5t74 -29.5
t50.5 -51.5t18.5 -75.5v-298q0 -20 2 -35t5 -29h-139v67zM400 224l-120 -11q-50 -5 -69 -20t-19 -43q0 -17 7.5 -28.5t19.5 -18.5t28.5 -10t34.5 -3q17 0 37.5 5t38.5 15.5t30 27t12 39.5v47z" />
    <glyph glyph-name="b" unicode="b" horiz-adv-x="667" 
d="M78 752h144v-308h2q36 48 74.5 66t88.5 18q55 0 99.5 -22t75 -59.5t47 -86t16.5 -102.5t-17.5 -103t-49 -86.5t-75.5 -60t-98 -22.5q-50 0 -93 20t-74 66h-2v-72h-138v752zM475 254q0 29 -8 56.5t-24 48.5t-39.5 34t-54.5 13q-34 0 -58.5 -12.5t-41 -33.5t-24.5 -48
t-8 -56q0 -32 8.5 -60t25 -49t40 -33t54.5 -12q32 0 56 12.5t40.5 33.5t25 48.5t8.5 57.5z" />
    <glyph glyph-name="c" unicode="c" 
d="M375 317q-1 27 -9 44.5t-19.5 27t-26 13.5t-28.5 4q-33 0 -53 -15.5t-30.5 -39.5t-13.5 -52t-3 -53q0 -26 5 -51.5t16.5 -46t30.5 -33.5t47 -13q42 0 63.5 23t27.5 61l141 -5q-8 -42 -25.5 -78t-45 -62t-66.5 -40.5t-91 -14.5q-63 0 -110.5 19.5t-79 54.5t-47.5 84
t-16 108q0 62 17 113t49.5 87t78.5 56t105 20q57 0 100 -16.5t71.5 -45t43.5 -65.5t18 -78z" />
    <glyph glyph-name="d" unicode="d" horiz-adv-x="667" 
d="M451 72h-2q-31 -46 -74 -66t-93 -20q-54 0 -98 22.5t-75.5 60t-49 86.5t-17.5 103t16.5 102.5t47 86t74.5 59.5t100 22q50 0 88.5 -18t74.5 -66h2v308h144v-752h-138v72zM450 256q0 29 -8 56t-24.5 48t-41 33.5t-58.5 12.5q-31 0 -54.5 -13t-39.5 -34t-24 -48.5t-8 -56.5
q0 -30 8.5 -57.5t25 -48.5t40.5 -33.5t56 -12.5q31 0 54.5 12t40 33t25 49t8.5 60z" />
    <glyph glyph-name="e" unicode="e" horiz-adv-x="610" 
d="M424 308q-2 19 -10 38.5t-22 35.5t-34 26t-46 10q-28 0 -49 -9t-36 -24t-23.5 -35t-11.5 -42h232zM192 216q2 -23 10.5 -44.5t23 -38t36 -27t50.5 -10.5q33 0 60.5 15.5t42.5 45.5l140 -11q-26 -79 -92.5 -119.5t-157.5 -40.5q-58 0 -106.5 19t-83 54.5t-54 85
t-19.5 111.5t19.5 112.5t54 86t83 54.5t106.5 19t106.5 -19t83 -54.5t54 -86t19.5 -112.5v-40h-376z" />
    <glyph glyph-name="f" unicode="f" horiz-adv-x="333" 
d="M84 404h-73v110h73v67q0 54 13 88.5t38.5 54t62.5 27t85 7.5h28v-122h-40q-19 0 -31 -10t-12 -32v-80h83v-110h-83v-404h-144v404z" />
    <glyph glyph-name="g" unicode="g" horiz-adv-x="667" 
d="M449 258q0 71 -34 109.5t-98 38.5q-29 0 -52 -11t-39.5 -30.5t-25 -45.5t-8.5 -56q0 -47 14 -76.5t34 -46t42.5 -23t39.5 -6.5q14 0 35.5 5t42 20.5t35 44.5t14.5 77zM451 514h138v-506q0 -58 -20 -103t-56.5 -76t-87.5 -47t-112 -16q-112 0 -174 47t-76 128h148
q9 -29 31.5 -47t74.5 -18q19 0 41 5t41 18.5t32 37.5t15 63l4 88l-2 2q-25 -54 -68 -74.5t-98 -20.5q-48 0 -91.5 18.5t-76.5 53t-52.5 84t-19.5 112.5q0 54 18 102t50.5 84.5t77.5 57.5t100 21q59 0 100.5 -26.5t60.5 -68.5h2v81z" />
    <glyph glyph-name="h" unicode="h" horiz-adv-x="610" 
d="M397 313q0 28 -7.5 47t-20.5 30.5t-29 16.5t-33 5q-44 0 -69 -33.5t-25 -86.5v-292h-144v752h144v-305h2q30 47 67 64t79 17q46 0 80 -14t56.5 -38.5t33 -57t10.5 -69.5v-349h-144v313z" />
    <glyph glyph-name="i" unicode="i" horiz-adv-x="278" 
d="M55 673q0 16 6.5 31t17.5 27t26.5 19.5t33.5 7.5q16 0 31 -6.5t27 -18t19 -26.5t7 -32t-6.5 -32t-18 -27t-27 -19t-32.5 -7q-18 0 -33.5 7.5t-26.5 19t-17.5 26.5t-6.5 30zM67 514h144v-514h-144v514z" />
    <glyph glyph-name="j" unicode="j" horiz-adv-x="278" 
d="M55 673q0 16 6.5 31t17.5 27t26.5 19.5t33.5 7.5q16 0 31 -6.5t27 -18t19 -26.5t7 -32t-6.5 -32t-18 -27t-27 -19t-32.5 -7q-18 0 -33.5 7.5t-26.5 19t-17.5 26.5t-6.5 30zM-17 -112h38q17 0 31.5 13t14.5 53v560h144v-566q0 -59 -18 -95t-45 -55.5t-59 -25.5t-59 -6
q-11 0 -23 1t-24 1v120z" />
    <glyph glyph-name="k" unicode="k" 
d="M215 252h-2v-252h-144v752h144v-463h2l155 225h167l-172 -232l179 -282h-177z" />
    <glyph glyph-name="l" unicode="l" horiz-adv-x="278" 
d="M67 752h144v-752h-144v752z" />
    <glyph glyph-name="m" unicode="m" horiz-adv-x="888" 
d="M675 331q0 30 -18 55.5t-59 25.5q-21 0 -36 -8.5t-25.5 -22t-15.5 -30t-5 -31.5v-320h-144v317q0 41 -16.5 68t-61.5 27q-22 0 -37.5 -8.5t-25 -22.5t-14 -32t-4.5 -37v-312h-144v514h138v-67h2q34 51 72.5 66t82.5 15q13 0 31 -2.5t37.5 -11t37.5 -24t32 -42.5
q19 25 39 41t39.5 24.5t38 11.5t34.5 3q33 0 63 -9.5t53 -29.5t36.5 -50t13.5 -70v-369h-144v331z" />
    <glyph glyph-name="n" unicode="n" horiz-adv-x="610" 
d="M397 313q0 28 -7.5 47t-20.5 30.5t-29 16.5t-33 5q-44 0 -69 -33.5t-25 -86.5v-292h-144v514h138v-67h2q32 47 70 64t82 17q46 0 80 -14t56.5 -38.5t33 -57t10.5 -69.5v-349h-144v313z" />
    <glyph glyph-name="o" unicode="o" horiz-adv-x="610" 
d="M418 257q0 67 -28 111t-85 44t-85 -44t-28 -111t28 -111t85 -44t85 44t28 111zM568 257q0 -62 -19.5 -112t-54 -85.5t-83 -54.5t-106.5 -19t-106.5 19t-83 54.5t-54 85.5t-19.5 112t19.5 112t54 85.5t83 54.5t106.5 19t106.5 -19t83 -54.5t54 -85.5t19.5 -112z" />
    <glyph glyph-name="p" unicode="p" horiz-adv-x="667" 
d="M78 514h138v-72h2q31 46 74 66t93 20q54 0 98 -22.5t75.5 -60t49 -86.5t17.5 -103t-16.5 -102.5t-47 -86t-75 -59.5t-99.5 -22q-50 0 -88.5 18t-74.5 66h-2v-294h-144v738zM475 260q0 30 -8.5 57.5t-25 48.5t-40.5 33.5t-56 12.5q-31 0 -54.5 -12t-40 -33t-25 -49
t-8.5 -60q0 -29 8 -56t24.5 -48t41 -33.5t58.5 -12.5q31 0 54.5 13t39.5 34t24 48.5t8 56.5z" />
    <glyph glyph-name="q" unicode="q" horiz-adv-x="667" 
d="M445 70h-2q-36 -48 -74.5 -66t-88.5 -18q-56 0 -100 22t-74.5 59.5t-47 86t-16.5 102.5t17.5 103t49 86.5t75.5 60t98 22.5q50 0 93 -20t74 -66h2v72h138v-738h-144v294zM450 258q0 32 -8.5 60t-25 49t-40 33t-54.5 12q-32 0 -56 -12.5t-40.5 -33.5t-25 -48.5t-8.5 -57.5
q0 -29 8 -56.5t24 -48.5t39.5 -34t54.5 -13q34 0 58.5 12.5t41 33.5t24.5 48t8 56z" />
    <glyph glyph-name="r" unicode="r" horiz-adv-x="389" 
d="M69 514h138v-99h2q20 55 58.5 84t89.5 29h20v-140h-32q-28 0 -52 -8.5t-42 -25.5t-28 -42.5t-10 -59.5v-252h-144v514z" />
    <glyph glyph-name="s" unicode="s" 
d="M353 355q-2 32 -24 50.5t-64 18.5q-29 0 -52.5 -11.5t-23.5 -34.5t23.5 -34t59.5 -18l77 -14.5t77 -24.5t59.5 -47t23.5 -82q0 -15 -7 -44t-31 -57.5t-70.5 -49.5t-125.5 -21q-27 0 -64.5 6t-72 24t-61 52.5t-30.5 91.5h144q1 -19 9 -32t20.5 -21.5t28 -12.5t31.5 -4
q14 0 29 2.5t27.5 8.5t20.5 16t8 26q0 21 -23 31t-57 17l-74 15t-74 25t-57 48t-23 84q0 30 12 59.5t37.5 53t66 38t97.5 14.5q99 0 160 -43t67 -127z" />
    <glyph glyph-name="t" unicode="t" horiz-adv-x="333" 
d="M18 514h66v148h144v-148h76v-110h-76v-260q0 -17 9.5 -25.5t37.5 -8.5q9 0 15.5 0.5t13.5 2.5v-113l-34.5 -4t-34.5 -2q-35 0 -63 5.5t-47.5 20t-30 40.5t-10.5 68v276h-66v110z" />
    <glyph glyph-name="u" unicode="u" horiz-adv-x="610" 
d="M403 67h-2q-32 -47 -70 -64t-82 -17q-47 0 -80.5 14t-56 38.5t-33 57t-10.5 69.5v349h144v-313q0 -28 7.5 -47t20.5 -30.5t29 -16.5t33 -5q44 0 69 33.5t25 86.5v292h144v-514h-138v67z" />
    <glyph glyph-name="v" unicode="v" 
d="M10 514h158l109 -340h2l109 340h158l-193 -514h-150z" />
    <glyph glyph-name="w" unicode="w" horiz-adv-x="832" 
d="M417 341h-2l-90 -341h-151l-164 514h153l85 -350h2l91 350h150l91 -350h2l85 350h153l-164 -514h-151z" />
    <glyph glyph-name="x" unicode="x" 
d="M273 147l-87 -147h-176l180 257l-176 257h181l82 -142l87 142h177l-180 -252l185 -262h-182z" />
    <glyph glyph-name="y" unicode="y" 
d="M203 0l-193 514h158l109 -340h2l109 340h158l-278 -738h-151z" />
    <glyph glyph-name="z" unicode="z" horiz-adv-x="500" 
d="M33 104l251 294h-237v116h420v-104l-248 -294h248v-116h-434v104z" />
    <glyph glyph-name="braceleft" unicode="{" horiz-adv-x="333" 
d="M100 647q0 34 13 59.5t33 42t43.5 25t44.5 8.5h89v-92h-43q-36 0 -45 -22.5t-9 -56.5v-204q0 -32 -11.5 -52.5t-28.5 -33t-36 -18.5t-35 -7v-2q16 -2 35 -7.5t36 -18t28.5 -33.5t11.5 -52v-204q0 -34 9 -56.5t45 -22.5h43v-92h-89q-21 0 -44.5 8.5t-43.5 25t-33 42
t-13 59.5v226q0 23 -8 38.5t-20.5 24.5t-26.5 13t-26 4v92q12 0 26 4t26.5 13t20.5 24.5t8 38.5v226z" />
    <glyph glyph-name="bar" unicode="|" horiz-adv-x="222" 
d="M59 766h104v-780h-104v780z" />
    <glyph glyph-name="braceright" unicode="}" horiz-adv-x="333" 
d="M233 -57q0 -34 -13 -59.5t-33 -42t-43.5 -25t-44.5 -8.5h-89v92h43q36 0 45 22.5t9 56.5v204q0 31 11.5 52t28.5 33.5t36 18t35 7.5v2q-16 1 -35 7t-36 18.5t-28.5 33t-11.5 52.5v204q0 34 -9 56.5t-45 22.5h-43v92h89q21 0 44.5 -8.5t43.5 -25t33 -42t13 -59.5v-226
q0 -23 8 -38.5t20.5 -24.5t26.5 -13t26 -4v-92q-12 0 -26 -4t-26.5 -13t-20.5 -24.5t-8 -38.5v-226z" />
    <glyph glyph-name="asciitilde" unicode="~" horiz-adv-x="600" 
d="M531 257q-11 -16 -23.5 -31.5t-27 -27.5t-33 -19.5t-41.5 -7.5q-35 0 -57 10.5l-47 23.5t-49.5 23.5t-63.5 10.5q-33 0 -52.5 -23t-31.5 -50l-36 83q8 16 19.5 31.5t26.5 28t34.5 20.5t44.5 8q35 0 59.5 -10.5t53.5 -24.5q29 -13 50 -24t50 -11q30 0 50.5 23t37.5 50z
" />
    <glyph glyph-name="Euro" 
d="M398 536q0 35 -20 61.5t-58 26.5q-42 0 -62.5 -34.5t-28.5 -93.5h226l-31 -86h-205q-1 -10 -1 -20v-21v-28h181l-30 -86h-141q2 -29 9 -54.5t18 -44.5t25.5 -29.5t32.5 -10.5q35 0 54 18.5t26 48.5l145 -9q-8 -42 -25 -76.5t-44 -58.5t-66 -37.5t-91 -13.5
q-100 0 -158.5 70t-76.5 197h-81l30 86h43q-1 7 -1 14v15v20q0 10 1 20h-73l30 86h54q21 119 80.5 187.5t155.5 68.5q57 0 97 -15t67 -42t42 -65.5t22 -84.5z" />
    <glyph glyph-name="Euro" unicode="&#x20ac;" 
d="M398 536q0 35 -20 61.5t-58 26.5q-42 0 -62.5 -34.5t-28.5 -93.5h226l-31 -86h-205q-1 -10 -1 -20v-21v-28h181l-30 -86h-141q2 -29 9 -54.5t18 -44.5t25.5 -29.5t32.5 -10.5q35 0 54 18.5t26 48.5l145 -9q-8 -42 -25 -76.5t-44 -58.5t-66 -37.5t-91 -13.5
q-100 0 -158.5 70t-76.5 197h-81l30 86h43q-1 7 -1 14v15v20q0 10 1 20h-73l30 86h54q21 119 80.5 187.5t155.5 68.5q57 0 97 -15t67 -42t42 -65.5t22 -84.5z" />
    <glyph glyph-name="quotesinglbase" unicode="&#x201a;" horiz-adv-x="278" 
d="M243 111l-115 -264l-93 28l74 278z" />
    <glyph glyph-name="florin" unicode="&#x192;" 
d="M127 410h81l12 118q4 39 11.5 79t25.5 72.5t51.5 52.5t89.5 20q23 0 35 -1.5t26 -3.5l-10 -118q-11 4 -16.5 5.5t-16.5 1.5q-17 0 -27.5 -8t-16.5 -20t-9 -25.5t-4 -24.5l-14 -148h87l-10 -110h-82l-27 -328q-4 -49 -14 -87t-30 -64.5t-54 -40.5t-86 -14q-15 0 -28.5 2
t-24.5 4l10 114q8 -1 16.5 -2.5t18.5 -1.5q15 0 25 9.5t16 23.5t9 30t4 29l26 326h-83z" />
    <glyph glyph-name="quotedblbase" unicode="&#x201e;" 
d="M263 111l-115 -264l-93 28l74 278zM501 111l-115 -264l-93 28l74 278z" />
    <glyph glyph-name="ellipsis" unicode="&#x2026;" horiz-adv-x="1000" 
d="M749 72q0 35 24.5 59.5t59.5 24.5t59.5 -24.5t24.5 -59.5t-24.5 -59.5t-59.5 -24.5t-59.5 24.5t-24.5 59.5zM416 72q0 35 24.5 59.5t59.5 24.5t59.5 -24.5t24.5 -59.5t-24.5 -59.5t-59.5 -24.5t-59.5 24.5t-24.5 59.5zM83 72q0 35 24.5 59.5t59.5 24.5t59.5 -24.5
t24.5 -59.5t-24.5 -59.5t-59.5 -24.5t-59.5 24.5t-24.5 59.5z" />
    <glyph glyph-name="dagger" unicode="&#x2020;" 
d="M209 395h-166v122h166v235h138v-235h166v-122h-166v-516h-138v516z" />
    <glyph glyph-name="daggerdbl" unicode="&#x2021;" 
d="M209 431h-166v122h166v199h138v-199h166v-122h-166v-231h166v-122h-166v-199h-138v199h-166v122h166v231z" />
    <glyph glyph-name="circumflex" unicode="&#x2c6;" horiz-adv-x="278" 
d="M139 686l-70 -90h-92l107 146h110l107 -146h-92z" />
    <glyph glyph-name="perthousand" unicode="&#x2030;" horiz-adv-x="1000" 
d="M508 761h82l-431 -782h-86zM511 -12q-71 0 -105.5 48t-34.5 131t34.5 131t105.5 48t105.5 -48t34.5 -131t-34.5 -131t-105.5 -48zM511 62q29 0 36.5 24.5t7.5 80.5q0 51 -7.5 78t-36.5 27t-36.5 -27t-7.5 -78q0 -56 7.5 -80.5t36.5 -24.5zM850 -12q-71 0 -105.5 48
t-34.5 131t34.5 131t105.5 48t105.5 -48t34.5 -131t-34.5 -131t-105.5 -48zM850 62q29 0 36.5 24.5t7.5 80.5q0 51 -7.5 78t-36.5 27t-36.5 -27t-7.5 -78q0 -56 7.5 -80.5t36.5 -24.5zM150 468q29 0 36.5 24.5t7.5 80.5q0 51 -7.5 78t-36.5 27t-36.5 -27t-7.5 -78
q0 -56 7.5 -80.5t36.5 -24.5zM150 394q-71 0 -105.5 48t-34.5 131t34.5 131t105.5 48t105.5 -48t34.5 -131t-34.5 -131t-105.5 -48z" />
    <glyph glyph-name="Scaron" unicode="&#x160;" horiz-adv-x="667" 
d="M447 554q0 39 -32.5 61.5t-77.5 22.5q-57 0 -88.5 -22.5t-31.5 -60.5q0 -20 8.5 -34.5t21 -25t28 -18t29.5 -11.5l138 -44q37 -12 68.5 -29.5t54.5 -42t35.5 -58t12.5 -76.5q0 -35 -13.5 -75t-45.5 -74.5t-84.5 -57.5t-130.5 -23q-65 0 -111.5 13t-78.5 33.5t-50.5 46.5
t-28.5 52t-13 50t-3 41l150 3q0 -30 11 -51t29.5 -34.5t43.5 -19.5t52 -6q19 0 40.5 5t40 15t30.5 25.5t12 37.5q0 15 -4 27t-14 22t-27.5 19.5t-45.5 19.5l-164 59q-31 11 -57 30t-44.5 43.5t-29 53.5t-10.5 61q0 36 13.5 77t44 76t80.5 58t123 23q87 0 140 -25t81.5 -59
t38 -69t9.5 -56zM404 935h92l-107 -146h-110l-107 146h92l70 -90z" />
    <glyph glyph-name="guilsinglleft" unicode="&#x2039;" horiz-adv-x="278" 
d="M138 444h110l-110 -182l105 -182h-110l-103 182z" />
    <glyph glyph-name="OE" unicode="&#x152;" horiz-adv-x="1000" 
d="M557 87h-2q-22 -34 -49 -54t-54 -30.5t-52 -13.5t-43 -3q-30 0 -64.5 7t-69.5 24.5t-67 47t-57 74.5t-40 106t-15 143q0 86 25.5 156t67.5 119.5t97.5 76t115.5 26.5q83 0 133 -27.5t73 -67.5h2v81h394v-134h-251v-171h242v-134h-242v-179h251v-134h-395v87zM557 375
q0 31 -6 75t-24.5 84.5t-54 69t-95.5 28.5q-45 0 -79.5 -19.5t-57.5 -54t-34.5 -82t-11.5 -102.5q0 -59 13 -106t37 -80t57.5 -50.5t74.5 -17.5q45 0 79 20t56.5 54.5t34 81t11.5 99.5z" />
    <glyph glyph-name="Zcaron" horiz-adv-x="611" 
d="M36 118l349 500h-325v134h515v-118l-350 -500h350v-134h-539v118zM376 935h92l-107 -146h-110l-107 146h92l70 -90z" />
    <glyph glyph-name="Zcaron" unicode="&#x17d;" horiz-adv-x="611" 
d="M36 118l349 500h-325v134h515v-118l-350 -500h350v-134h-539v118zM376 935h92l-107 -146h-110l-107 146h92l70 -90z" />
    <glyph glyph-name="quoteleft" unicode="&#x2018;" horiz-adv-x="278" 
d="M169 460l-134 42l114 264l94 -28z" />
    <glyph glyph-name="quoteright" unicode="&#x2019;" horiz-adv-x="278" 
d="M243 724l-115 -264l-93 28l74 278z" />
    <glyph glyph-name="quotedblleft" unicode="&#x201c;" 
d="M501 738l-74 -278l-134 42l114 264zM263 738l-74 -278l-134 42l114 264z" />
    <glyph glyph-name="quotedblright" unicode="&#x201d;" 
d="M263 724l-115 -264l-93 28l74 278zM501 724l-115 -264l-93 28l74 278z" />
    <glyph glyph-name="bullet" unicode="&#x2022;" horiz-adv-x="500" 
d="M62 376q0 39 14.5 73t40 59.5t60 40.5t73.5 15t73 -15t59.5 -40.5t40.5 -59.5t15 -73t-15 -73.5t-40.5 -60t-59.5 -40t-73 -14.5t-73.5 14.5t-60 40t-40 60t-14.5 73.5z" />
    <glyph glyph-name="endash" unicode="&#x2013;" horiz-adv-x="500" 
d="M0 317h500v-110h-500v110z" />
    <glyph glyph-name="emdash" unicode="&#x2014;" horiz-adv-x="1000" 
d="M0 317h1000v-110h-1000v110z" />
    <glyph glyph-name="tilde" unicode="&#x2dc;" horiz-adv-x="278" 
d="M-37 603q3 20 10 41t20 38t32.5 27.5t46.5 10.5q20 0 39 -5.5t36 -12.5l33.5 -13t29.5 -6q20 0 32 11t16 31h57q-3 -20 -10 -40.5t-20 -37.5t-32 -27.5t-46 -10.5q-20 0 -39 5.5t-36 12.5l-33.5 13t-29.5 6q-41 0 -49 -43h-57z" />
    <glyph glyph-name="trademark" unicode="&#x2122;" horiz-adv-x="1000" 
d="M133 672h-117v80h338v-80h-117v-332h-104v332zM823 632h-2l-106 -292h-75l-106 292h-2v-292h-96v412h143l99 -260l98 260h143v-412h-96v292z" />
    <glyph glyph-name="scaron" unicode="&#x161;" 
d="M353 355q-2 32 -24 50.5t-64 18.5q-29 0 -52.5 -11.5t-23.5 -34.5t23.5 -34t59.5 -18l77 -14.5t77 -24.5t59.5 -47t23.5 -82q0 -15 -7 -44t-31 -57.5t-70.5 -49.5t-125.5 -21q-27 0 -64.5 6t-72 24t-61 52.5t-30.5 91.5h144q1 -19 9 -32t20.5 -21.5t28 -12.5t31.5 -4
q14 0 29 2.5t27.5 8.5t20.5 16t8 26q0 21 -23 31t-57 17l-74 15t-74 25t-57 48t-23 84q0 30 12 59.5t37.5 53t66 38t97.5 14.5q99 0 160 -43t67 -127zM348 742h92l-107 -146h-110l-107 146h92l70 -90z" />
    <glyph glyph-name="guilsinglright" unicode="&#x203a;" horiz-adv-x="278" 
d="M248 262l-103 -182h-110l105 182l-110 182h110z" />
    <glyph glyph-name="oe" unicode="&#x153;" horiz-adv-x="944" 
d="M544 220q0 -26 6 -48.5t18.5 -39.5t32.5 -26.5t47 -9.5q33 0 59.5 14.5t44.5 46.5l140 -11q-16 -49 -45.5 -80t-64.5 -49t-72 -24.5t-68 -6.5q-54 0 -99 19.5t-74 61.5q-11 -14 -26 -28.5t-36 -26t-49.5 -19t-65.5 -7.5q-55 0 -101.5 19t-80.5 54.5t-53 85t-19 111.5
t19.5 112.5t54 86t83 54.5t106.5 19q50 0 95.5 -16.5t80.5 -62.5q34 44 81.5 61.5t101.5 17.5q58 0 103.5 -19.5t77 -55.5t48.5 -87.5t17 -115.5v-30h-362zM756 306q0 32 -9.5 53.5t-24.5 34.5t-34 18.5t-37 5.5q-48 0 -75 -30.5t-33 -81.5h213zM411 265q0 68 -31.5 104.5
t-78.5 36.5q-52 0 -82.5 -41.5t-30.5 -108.5q0 -70 29.5 -109t83.5 -39q32 0 53 15t34 38t18 50.5t5 53.5z" />
    <glyph glyph-name="zcaron" horiz-adv-x="500" 
d="M33 104l251 294h-237v116h420v-104l-248 -294h248v-116h-434v104zM320 742h92l-107 -146h-110l-107 146h92l70 -90z" />
    <glyph glyph-name="zcaron" unicode="&#x17e;" horiz-adv-x="500" 
d="M33 104l251 294h-237v116h420v-104l-248 -294h248v-116h-434v104zM320 742h92l-107 -146h-110l-107 146h92l70 -90z" />
    <glyph glyph-name="Ydieresis" unicode="&#x178;" horiz-adv-x="611" 
d="M436 752h165l-219 -451v-301h-150v301l-222 451h175l123 -289zM413 945q31 0 53 -22t22 -53t-22 -53t-53 -22t-53 22t-22 53t22 53t53 22zM199 945q31 0 53 -22t22 -53t-22 -53t-53 -22t-53 22t-22 53t22 53t53 22z" />
    <glyph glyph-name="exclamdown" unicode="&#xa1;" horiz-adv-x="332" 
d="M82 470q0 35 24.5 59.5t59.5 24.5t59.5 -24.5t24.5 -59.5t-24.5 -59.5t-59.5 -24.5t-59.5 24.5t-24.5 59.5zM94 306h144v-516h-144v516z" />
    <glyph glyph-name="cent" unicode="&#xa2;" 
d="M259 -12q-56 5 -97.5 26t-69 55.5t-41.5 81t-14 101.5q0 58 15 107t43.5 85t70 57.5t93.5 26.5v95h54v-95q51 -4 88.5 -22t63 -46t39 -63.5t15.5 -73.5l-150 -6q-2 42 -18 62.5t-38 26.5v-300q28 6 43 27.5t20 52.5l141 -5q-8 -40 -23.5 -74.5t-40 -60t-59.5 -40.5
t-81 -18v-98h-54v98zM259 406q-24 -7 -38 -25t-21.5 -40.5t-10 -47.5t-2.5 -47t3.5 -44.5t12 -41.5t22.5 -33.5t34 -20.5v300z" />
    <glyph glyph-name="sterling" unicode="&#xa3;" 
d="M31 400h71q-3 4 -10.5 17.5t-15 34t-13 45.5t-5.5 51q0 36 12.5 72.5t39.5 65.5t68.5 47.5t99.5 18.5t100 -14.5t70.5 -41.5t45 -66t23.5 -88h-147q-1 38 -21.5 63t-62.5 25q-27 0 -43.5 -8.5t-25.5 -21.5t-12 -28t-3 -28q0 -33 17 -70.5t35 -73.5h152v-62h-133
q3 -14 4.5 -25t1.5 -30t-4 -37.5t-14 -38t-27.5 -40.5t-44.5 -45l2 -2q14 3 23 5.5t15 3.5t11.5 1.5t11.5 0.5q13 0 32 -3.5l38.5 -7t36.5 -7t25 -3.5q25 0 50 6.5t58 33.5l34 -121q-40 -23 -72 -32t-59 -9q-25 0 -49.5 6t-48.5 13.5t-48 13.5t-47 6q-16 0 -49.5 -7
t-71.5 -32l-51 108q22 12 43.5 26t37.5 32t26 41t10 53q0 29 -6 51l-11 39h-99v62z" />
    <glyph glyph-name="currency" unicode="&#xa4;" 
d="M134 370q0 -30 11 -56.5t30.5 -46t46 -30.5t56.5 -11t56 11t45.5 30.5t31 46t11.5 56.5t-11.5 56t-31 45.5t-45.5 31t-56 11.5t-56.5 -11.5t-46 -31t-30.5 -45.5t-11 -56zM78 227q-25 25 -36.5 63.5t-11.5 79.5t11.5 79.5t36.5 63.5l-57 58l57 56l57 -55q25 21 64 33.5
t79 12.5t79 -12.5t64 -33.5l57 55l57 -56l-57 -58q25 -25 36.5 -63.5t11.5 -79.5t-11.5 -79.5t-36.5 -63.5l57 -58l-57 -56l-57 55q-25 -21 -64 -33.5t-79 -12.5t-79 12.5t-64 33.5l-57 -55l-57 56z" />
    <glyph glyph-name="yen" unicode="&#xa5;" 
d="M72 241h143v57l-5 12h-138v86h99l-156 344h153l110 -284l119 284h144l-156 -344h99v-86h-138l-5 -12v-57h143v-86h-143v-155h-126v155h-143v86z" />
    <glyph glyph-name="brokenbar" unicode="&#xa6;" horiz-adv-x="222" 
d="M59 766h104v-292h-104v292zM59 278h104v-292h-104v292z" />
    <glyph glyph-name="section" unicode="&#xa7;" 
d="M371 272q0 102 -97 102q-17 0 -33 -6t-28.5 -18t-20 -30t-7.5 -43q0 -53 26 -75.5t69 -22.5q47 0 69 28.5t22 64.5zM203 -36q5 -34 21 -52q18 -20 49 -20q30 0 51.5 15.5t21.5 52.5q0 36 -22.5 56t-56.5 33.5t-73.5 26t-73.5 35t-56.5 59.5t-22.5 100q0 60 28.5 104.5
t81.5 66.5q-40 24 -58 56.5t-18 81.5q0 21 7.5 52.5t30 61.5t63 51.5t106.5 21.5q54 0 92.5 -15.5t63 -42t36.5 -61t14 -72.5h-138q-1 37 -21 57q-18 18 -51 18q-26 0 -45.5 -16.5t-19.5 -45.5q0 -32 22.5 -50t56 -31.5t72.5 -27t72.5 -36.5t56 -60.5t22.5 -97.5
q0 -23 -5 -47t-17 -46t-33 -42t-52 -35q43 -23 59.5 -61t16.5 -84q0 -38 -13 -73t-39 -62t-66 -43t-95 -16q-94 0 -145.5 45.5t-60.5 142.5h138z" />
    <glyph glyph-name="dieresis" unicode="&#xa8;" horiz-adv-x="278" 
d="M246 752q31 0 53 -22t22 -53t-22 -53t-53 -22t-53 22t-22 53t22 53t53 22zM32 752q31 0 53 -22t22 -53t-22 -53t-53 -22t-53 22t-22 53t22 53t53 22z" />
    <glyph glyph-name="copyright" unicode="&#xa9;" horiz-adv-x="800" 
d="M10 376q0 81 30.5 152t83.5 124t124 83.5t152 30.5t152 -30.5t124 -83.5t83.5 -124t30.5 -152t-30.5 -152t-83.5 -124t-124 -83.5t-152 -30.5t-152 30.5t-124 83.5t-83.5 124t-30.5 152zM604 313q-6 -39 -23 -69.5t-42.5 -51.5t-57 -31.5t-66.5 -10.5q-50 0 -91 17.5
t-69.5 48.5t-44 73t-15.5 90q0 49 15 91t43 73t68.5 48t91.5 17q36 0 67.5 -10.5t56.5 -30.5t41 -50t22 -70h-92q-8 38 -36 56.5t-65 18.5q-56 0 -85 -39.5t-29 -102.5q0 -30 8.5 -56.5t23.5 -46t36.5 -30.5t47.5 -11q41 0 68 19.5t31 57.5h96zM686 376q0 67 -23 122.5
t-62 96t-91 63t-110 22.5q-59 0 -111 -22.5t-91 -63t-61.5 -96t-22.5 -122.5t22.5 -123t61.5 -96t91 -62.5t111 -22.5q58 0 110 22.5t91 62.5t62 96t23 123z" />
    <glyph glyph-name="ordfeminine" unicode="&#xaa;" horiz-adv-x="396" 
d="M247 489h-2q-14 -29 -43 -38.5t-58 -9.5q-20 0 -40.5 5t-37.5 16.5t-28 31t-11 48.5q0 24 10.5 41t26.5 28t36 16t40 7l101 7v9q0 18 -15 30t-40 12q-22 0 -36.5 -11.5t-16.5 -28.5h-96q2 32 16 53.5t36 35.5t49 19.5t56 5.5q31 0 58.5 -5.5t48 -17.5t32.5 -31t12 -46
v-179q0 -12 1.5 -21t3.5 -17h-103v40zM241 580l-60 -5q-32 -3 -41 -12.5t-9 -14.5q0 -19 15.5 -26t27.5 -7q7 0 18.5 3t22 9t18.5 16t8 24v13z" />
    <glyph glyph-name="guillemotleft" unicode="&#xab;" 
d="M173 444h110l-110 -182l105 -182h-110l-103 182zM381 444h110l-110 -182l105 -182h-110l-103 182z" />
    <glyph glyph-name="logicalnot" unicode="&#xac;" horiz-adv-x="600" 
d="M449 310h-402v104h506v-306h-104v202z" />
    <glyph glyph-name="registered" unicode="&#xae;" horiz-adv-x="800" 
d="M417 410q33 0 54.5 11t21.5 50q0 18 -8 29t-21 17t-28 7.5t-29 1.5h-77v-116h87zM381 344h-51v-183h-86v431h163q83 0 127.5 -28t44.5 -101q0 -59 -32 -85t-82 -30l114 -187h-95zM686 376q0 67 -23 122.5t-62 96t-91 63t-110 22.5q-59 0 -111 -22.5t-91 -63t-61.5 -96
t-22.5 -122.5t22.5 -123t61.5 -96t91 -62.5t111 -22.5q58 0 110 22.5t91 62.5t62 96t23 123zM10 376q0 81 30.5 152t83.5 124t124 83.5t152 30.5t152 -30.5t124 -83.5t83.5 -124t30.5 -152t-30.5 -152t-83.5 -124t-124 -83.5t-152 -30.5t-152 30.5t-124 83.5t-83.5 124
t-30.5 152z" />
    <glyph glyph-name="macron" unicode="&#xaf;" horiz-adv-x="278" 
d="M-6 691h290v-66h-290v66z" />
    <glyph glyph-name="macron" unicode="&#x2c9;" horiz-adv-x="278" 
d="M-6 691h290v-66h-290v66z" />
    <glyph glyph-name="degree" unicode="&#xb0;" horiz-adv-x="400" 
d="M123 609q0 -32 22.5 -54.5t54.5 -22.5t54.5 22.5t22.5 54.5t-22.5 54.5t-54.5 22.5t-54.5 -22.5t-22.5 -54.5zM57 609q0 30 11 56t30.5 45.5t45.5 30.5t56 11t56 -11t45.5 -30.5t30.5 -45.5t11 -56t-11 -56t-30.5 -45.5t-45.5 -30.5t-56 -11t-56 11t-45.5 30.5
t-30.5 45.5t-11 56z" />
    <glyph glyph-name="plusminus" unicode="&#xb1;" horiz-adv-x="600" 
d="M47 104h506v-104h-506v104zM248 506h104v-132h201v-104h-201v-133h-104v133h-201v104h201v132z" />
    <glyph glyph-name="twosuperior" unicode="&#xb2;" horiz-adv-x="361" 
d="M20 368l132 134q28 28 44 45.5t23.5 29.5t9.5 22t2 24q0 19 -12.5 31t-38.5 12t-41.5 -17t-15.5 -54h-96q0 48 16 79t39.5 48t50.5 23.5t49 6.5q34 0 62 -9.5t48 -27t31.5 -41t11.5 -50.5q0 -21 -5 -40t-17.5 -38.5t-33 -41t-51.5 -49.5l-75 -69h188v-86h-321v68z" />
    <glyph glyph-name="threesuperior" unicode="&#xb3;" horiz-adv-x="361" 
d="M109 576l92 90h-169v86h285v-79l-101 -99q60 0 95 -36t35 -91q0 -32 -12.5 -59t-35.5 -46.5t-55 -30.5t-71 -11q-23 0 -49 5.5t-49.5 20.5t-39.5 40t-19 64l104 8q1 -18 8 -28.5t16 -16t18 -6.5t14 -1q26 0 43.5 19t17.5 44q0 28 -17.5 43.5t-49.5 15.5q-18 0 -34 -5
t-26 -9v82z" />
    <glyph glyph-name="acute" unicode="&#xb4;" horiz-adv-x="278" 
d="M119 742h135l-140 -140h-83z" />
    <glyph glyph-name="mu" unicode="&#xb5;" horiz-adv-x="610" 
d="M403 67h-2q-32 -47 -60.5 -64t-58.5 -17q-23 0 -40.5 8t-26.5 24h-2v-242h-144v738h144v-313q0 -28 7.5 -47t20.5 -30.5t29 -16.5t33 -5q44 0 69 33.5t25 86.5v292h144v-514h-138v67z" />
    <glyph glyph-name="mu" unicode="&#x3bc;" horiz-adv-x="610" 
d="M403 67h-2q-32 -47 -60.5 -64t-58.5 -17q-23 0 -40.5 8t-26.5 24h-2v-242h-144v738h144v-313q0 -28 7.5 -47t20.5 -30.5t29 -16.5t33 -5q44 0 69 33.5t25 86.5v292h144v-514h-138v67z" />
    <glyph glyph-name="paragraph" unicode="&#xb6;" horiz-adv-x="620" 
d="M435 666h-106v-876h-104v580q-105 0 -162 49t-57 139q0 57 18 94.5t50 59.5t76 31t96 9h293v-962h-104v876z" />
    <glyph glyph-name="periodcentered" unicode="&#xb7;" horiz-adv-x="278" 
d="M55 296q0 35 24.5 59.5t59.5 24.5t59.5 -24.5t24.5 -59.5t-24.5 -59.5t-59.5 -24.5t-59.5 24.5t-24.5 59.5z" />
    <glyph glyph-name="periodcentered" unicode="&#x2219;" horiz-adv-x="278" 
d="M55 296q0 35 24.5 59.5t59.5 24.5t59.5 -24.5t24.5 -59.5t-24.5 -59.5t-59.5 -24.5t-59.5 24.5t-24.5 59.5z" />
    <glyph glyph-name="cedilla" unicode="&#xb8;" horiz-adv-x="278" 
d="M58 -88l66 94h68l-38 -52l2 -2q6 1 12.5 1.5t14.5 0.5q34 0 56.5 -23.5t22.5 -63.5q0 -46 -33.5 -73.5t-88.5 -27.5q-42 0 -73.5 9t-45.5 17l19 53q21 -9 37.5 -13.5t33.5 -4.5q8 0 17.5 1t18 5t14 11.5t5.5 20.5t-10 25t-36 12q-27 0 -40 -9z" />
    <glyph glyph-name="onesuperior" unicode="&#xb9;" horiz-adv-x="361" 
d="M141 632q-14 -11 -39.5 -25.5t-60.5 -28.5v87l28 14t34 19t35.5 24.5t32.5 29.5h74v-452h-104v332z" />
    <glyph glyph-name="ordmasculine" unicode="&#xba;" horiz-adv-x="396" 
d="M259 604q0 44 -18 63t-43 19q-24 0 -42.5 -19t-18.5 -63t18.5 -63.5t42.5 -19.5q25 0 43 19.5t18 63.5zM27 603q0 37 12.5 67t35.5 51.5t54 33t69 11.5t69.5 -11.5t54 -33t35 -51.5t12.5 -67t-12.5 -67t-35 -51t-54 -32.5t-69.5 -11.5t-69 11.5t-54 32.5t-35.5 51
t-12.5 67z" />
    <glyph glyph-name="guillemotright" unicode="&#xbb;" 
d="M491 262l-103 -182h-110l105 182l-110 182h110zM283 262l-103 -182h-110l105 182l-110 182h110z" />
    <glyph glyph-name="onequarter" unicode="&#xbc;" horiz-adv-x="834" 
d="M145 632q-14 -11 -39.5 -25.5t-60.5 -28.5v87l28 14t34 19t35.5 24.5t32.5 29.5h74v-452h-104v332zM570 752h82l-423 -764h-86zM476 185l173 259h106v-264h55v-74h-55v-106h-96v106h-183v79zM659 340h-2l-102 -160h104v160z" />
    <glyph glyph-name="onehalf" unicode="&#xbd;" horiz-adv-x="834" 
d="M468 68l132 134q28 28 44 45.5t23.5 29.5t9.5 22t2 24q0 19 -12.5 31t-38.5 12t-41.5 -17t-15.5 -54h-96q0 48 16 79t39.5 48t50.5 23.5t49 6.5q34 0 62 -9.5t48 -27t31.5 -41t11.5 -50.5q0 -21 -5 -40t-17.5 -38.5t-33 -41t-51.5 -49.5l-75 -69h188v-86h-321v68z
M145 632q-14 -11 -39.5 -25.5t-60.5 -28.5v87l28 14t34 19t35.5 24.5t32.5 29.5h74v-452h-104v332zM562 752h82l-423 -764h-86z" />
    <glyph glyph-name="threequarters" unicode="&#xbe;" horiz-adv-x="834" 
d="M118 576l92 90h-169v86h285v-79l-101 -99q60 0 95 -36t35 -91q0 -32 -12.5 -59t-35.5 -46.5t-55 -30.5t-71 -11q-23 0 -49 5.5t-49.5 20.5t-39.5 40t-19 64l104 8q1 -18 8 -28.5t16 -16t18 -6.5t14 -1q26 0 43.5 19t17.5 44q0 28 -17.5 43.5t-49.5 15.5q-18 0 -34 -5
t-26 -9v82zM613 752h82l-423 -764h-86zM476 185l173 259h106v-264h55v-74h-55v-106h-96v106h-183v79zM659 340h-2l-102 -160h104v160z" />
    <glyph glyph-name="questiondown" unicode="&#xbf;" 
d="M294 554q35 0 59.5 -24.5t24.5 -59.5t-24.5 -59.5t-59.5 -24.5t-59.5 24.5t-24.5 59.5t24.5 59.5t59.5 24.5zM369 306v-31q0 -40 -12.5 -69.5t-32 -52.5t-41.5 -42t-41.5 -39t-32 -42.5t-12.5 -52.5q0 -41 25 -60t57 -19q44 0 65 25.5t21 67.5v12h138q0 -53 -16 -95
t-45.5 -71.5t-72 -45t-94.5 -15.5q-42 0 -82 12t-71 36.5t-50 62t-19 89.5q0 43 13 74.5t33 56t43 44t43 39.5t33 42.5t13 52.5v21h138z" />
    <glyph glyph-name="Agrave" unicode="&#xc0;" horiz-adv-x="722" 
d="M496 157h-275l-49 -157h-162l274 752h158l270 -752h-165zM360 571h-2l-95 -292h193zM216 935h135l88 -140h-83z" />
    <glyph glyph-name="Aacute" unicode="&#xc1;" horiz-adv-x="722" 
d="M496 157h-275l-49 -157h-162l274 752h158l270 -752h-165zM360 571h-2l-95 -292h193zM376 935h135l-140 -140h-83z" />
    <glyph glyph-name="Acircumflex" unicode="&#xc2;" horiz-adv-x="722" 
d="M496 157h-275l-49 -157h-162l274 752h158l270 -752h-165zM360 571h-2l-95 -292h193zM361 879l-70 -90h-92l107 146h110l107 -146h-92z" />
    <glyph glyph-name="Atilde" unicode="&#xc3;" horiz-adv-x="722" 
d="M496 157h-275l-49 -157h-162l274 752h158l270 -752h-165zM360 571h-2l-95 -292h193zM185 796q3 20 10 41t20 38t32.5 27.5t46.5 10.5q20 0 39 -5.5t36 -12.5l33.5 -13t29.5 -6q20 0 32 11t16 31h57q-3 -20 -10 -40.5t-20 -37.5t-32 -27.5t-46 -10.5q-20 0 -39 5.5
t-36 12.5l-33.5 13t-29.5 6q-41 0 -49 -43h-57z" />
    <glyph glyph-name="Adieresis" unicode="&#xc4;" horiz-adv-x="722" 
d="M496 157h-275l-49 -157h-162l274 752h158l270 -752h-165zM360 571h-2l-95 -292h193zM468 945q31 0 53 -22t22 -53t-22 -53t-53 -22t-53 22t-22 53t22 53t53 22zM254 945q31 0 53 -22t22 -53t-22 -53t-53 -22t-53 22t-22 53t22 53t53 22z" />
    <glyph glyph-name="Aring" unicode="&#xc5;" horiz-adv-x="722" 
d="M496 157h-275l-49 -157h-162l274 752h158l270 -752h-165zM360 571h-2l-95 -292h193zM312 878q0 -20 14.5 -34.5t34.5 -14.5t34.5 14.5t14.5 34.5t-14.5 34.5t-34.5 14.5t-34.5 -14.5t-14.5 -34.5zM258 878q0 21 8 39.5t22 32.5t33 22.5t40 8.5t39.5 -8t32.5 -22.5
t22.5 -33t8.5 -39.5t-8.5 -39.5t-22.5 -32.5t-32.5 -22.5t-39.5 -8.5t-40 8.5t-33 22.5t-22 33t-8 39z" />
    <glyph glyph-name="AE" unicode="&#xc6;" horiz-adv-x="944" 
d="M465 636h-11l-148 -347h159v347zM465 161h-219l-72 -161h-164l344 752h542v-134h-281v-171h271v-134h-271v-179h281v-134h-431v161z" />
    <glyph glyph-name="Ccedilla" unicode="&#xc7;" horiz-adv-x="778" 
d="M576 485q-17 73 -63 110t-111 37q-46 0 -82 -20.5t-61.5 -55.5t-39 -82t-13.5 -99q0 -120 54 -187.5t146 -67.5q27 0 53 9t48.5 26t39.5 41.5t27 56.5l154 -11q-39 -127 -125.5 -191.5t-202.5 -64.5q-77 0 -141 25.5t-110.5 75t-72.5 122t-26 167.5q0 85 25.5 156.5
t72 123.5t110.5 81t142 29q59 0 112 -15t96 -48t73.5 -84.5t45.5 -123.5zM308 -88l66 94h68l-38 -52l2 -2q6 1 12.5 1.5t14.5 0.5q34 0 56.5 -23.5t22.5 -63.5q0 -46 -33.5 -73.5t-88.5 -27.5q-42 0 -73.5 9t-45.5 17l19 53q21 -9 37.5 -13.5t33.5 -4.5q8 0 17.5 1t18 5
t14 11.5t5.5 20.5t-10 25t-36 12q-27 0 -40 -9z" />
    <glyph glyph-name="Egrave" unicode="&#xc8;" horiz-adv-x="611" 
d="M83 752h480v-134h-330v-171h321v-134h-321v-179h330v-134h-480v752zM181 935h135l88 -140h-83z" />
    <glyph glyph-name="Eacute" unicode="&#xc9;" horiz-adv-x="611" 
d="M83 752h480v-134h-330v-171h321v-134h-321v-179h330v-134h-480v752zM341 935h135l-140 -140h-83z" />
    <glyph glyph-name="Ecircumflex" unicode="&#xca;" horiz-adv-x="611" 
d="M83 752h480v-134h-330v-171h321v-134h-321v-179h330v-134h-480v752zM306 879l-70 -90h-92l107 146h110l107 -146h-92z" />
    <glyph glyph-name="Edieresis" unicode="&#xcb;" horiz-adv-x="611" 
d="M83 752h480v-134h-330v-171h321v-134h-321v-179h330v-134h-480v752zM413 945q31 0 53 -22t22 -53t-22 -53t-53 -22t-53 22t-22 53t22 53t53 22zM199 945q31 0 53 -22t22 -53t-22 -53t-53 -22t-53 22t-22 53t22 53t53 22z" />
    <glyph glyph-name="Igrave" unicode="&#xcc;" horiz-adv-x="332" 
d="M91 752h150v-752h-150v752zM22 935h135l88 -140h-83z" />
    <glyph glyph-name="Iacute" unicode="&#xcd;" horiz-adv-x="332" 
d="M91 752h150v-752h-150v752zM176 935h135l-140 -140h-83z" />
    <glyph glyph-name="Icircumflex" unicode="&#xce;" horiz-adv-x="332" 
d="M91 752h150v-752h-150v752zM166 879l-70 -90h-92l107 146h110l107 -146h-92z" />
    <glyph glyph-name="Idieresis" unicode="&#xcf;" horiz-adv-x="332" 
d="M91 752h150v-752h-150v752zM273 945q31 0 53 -22t22 -53t-22 -53t-53 -22t-53 22t-22 53t22 53t53 22zM59 945q31 0 53 -22t22 -53t-22 -53t-53 -22t-53 22t-22 53t22 53t53 22z" />
    <glyph glyph-name="Eth" unicode="&#xd0;" horiz-adv-x="778" 
d="M430 350h-197v-222h127q58 0 98 22.5t65.5 58t37 80t11.5 88.5q0 47 -11 91.5t-37 79t-69 55.5t-107 21h-115v-182h197v-92zM5 442h78v310h283q85 0 152.5 -24.5t114 -72.5t71 -118t24.5 -161q0 -90 -29 -160t-78 -118t-114 -73t-137 -25h-287v350h-78v92z" />
    <glyph glyph-name="Ntilde" unicode="&#xd1;" horiz-adv-x="778" 
d="M229 513h-2v-513h-144v752h161l305 -505h2v505h144v-752h-155zM213 796q3 20 10 41t20 38t32.5 27.5t46.5 10.5q20 0 39 -5.5t36 -12.5l33.5 -13t29.5 -6q20 0 32 11t16 31h57q-3 -20 -10 -40.5t-20 -37.5t-32 -27.5t-46 -10.5q-20 0 -39 5.5t-36 12.5l-33.5 13t-29.5 6
q-41 0 -49 -43h-57z" />
    <glyph glyph-name="Ograve" unicode="&#xd2;" horiz-adv-x="832" 
d="M50 376q0 76 24.5 146.5t71 124.5t114.5 86.5t156 32.5t156 -32.5t114.5 -86.5t71 -124.5t24.5 -146.5t-24.5 -146.5t-71 -124.5t-114.5 -86.5t-156 -32.5t-156 32.5t-114.5 86.5t-71 124.5t-24.5 146.5zM626 376q0 51 -13 97t-39.5 81.5t-66 56.5t-91.5 21
q-53 0 -92 -21t-65.5 -56.5t-39.5 -81.5t-13 -97t13 -97t39.5 -81.5t65.5 -56.5t92 -21q52 0 91.5 21t66 56.5t39.5 81.5t13 97zM281 935h135l88 -140h-83z" />
    <glyph glyph-name="Oacute" unicode="&#xd3;" horiz-adv-x="832" 
d="M50 376q0 76 24.5 146.5t71 124.5t114.5 86.5t156 32.5t156 -32.5t114.5 -86.5t71 -124.5t24.5 -146.5t-24.5 -146.5t-71 -124.5t-114.5 -86.5t-156 -32.5t-156 32.5t-114.5 86.5t-71 124.5t-24.5 146.5zM626 376q0 51 -13 97t-39.5 81.5t-66 56.5t-91.5 21
q-53 0 -92 -21t-65.5 -56.5t-39.5 -81.5t-13 -97t13 -97t39.5 -81.5t65.5 -56.5t92 -21q52 0 91.5 21t66 56.5t39.5 81.5t13 97zM416 935h135l-140 -140h-83z" />
    <glyph glyph-name="Ocircumflex" unicode="&#xd4;" horiz-adv-x="832" 
d="M50 376q0 76 24.5 146.5t71 124.5t114.5 86.5t156 32.5t156 -32.5t114.5 -86.5t71 -124.5t24.5 -146.5t-24.5 -146.5t-71 -124.5t-114.5 -86.5t-156 -32.5t-156 32.5t-114.5 86.5t-71 124.5t-24.5 146.5zM626 376q0 51 -13 97t-39.5 81.5t-66 56.5t-91.5 21
q-53 0 -92 -21t-65.5 -56.5t-39.5 -81.5t-13 -97t13 -97t39.5 -81.5t65.5 -56.5t92 -21q52 0 91.5 21t66 56.5t39.5 81.5t13 97zM416 879l-70 -90h-92l107 146h110l107 -146h-92z" />
    <glyph glyph-name="Otilde" unicode="&#xd5;" horiz-adv-x="832" 
d="M50 376q0 76 24.5 146.5t71 124.5t114.5 86.5t156 32.5t156 -32.5t114.5 -86.5t71 -124.5t24.5 -146.5t-24.5 -146.5t-71 -124.5t-114.5 -86.5t-156 -32.5t-156 32.5t-114.5 86.5t-71 124.5t-24.5 146.5zM626 376q0 51 -13 97t-39.5 81.5t-66 56.5t-91.5 21
q-53 0 -92 -21t-65.5 -56.5t-39.5 -81.5t-13 -97t13 -97t39.5 -81.5t65.5 -56.5t92 -21q52 0 91.5 21t66 56.5t39.5 81.5t13 97zM240 796q3 20 10 41t20 38t32.5 27.5t46.5 10.5q20 0 39 -5.5t36 -12.5l33.5 -13t29.5 -6q20 0 32 11t16 31h57q-3 -20 -10 -40.5t-20 -37.5
t-32 -27.5t-46 -10.5q-20 0 -39 5.5t-36 12.5l-33.5 13t-29.5 6q-41 0 -49 -43h-57z" />
    <glyph glyph-name="Odieresis" unicode="&#xd6;" horiz-adv-x="832" 
d="M50 376q0 76 24.5 146.5t71 124.5t114.5 86.5t156 32.5t156 -32.5t114.5 -86.5t71 -124.5t24.5 -146.5t-24.5 -146.5t-71 -124.5t-114.5 -86.5t-156 -32.5t-156 32.5t-114.5 86.5t-71 124.5t-24.5 146.5zM626 376q0 51 -13 97t-39.5 81.5t-66 56.5t-91.5 21
q-53 0 -92 -21t-65.5 -56.5t-39.5 -81.5t-13 -97t13 -97t39.5 -81.5t65.5 -56.5t92 -21q52 0 91.5 21t66 56.5t39.5 81.5t13 97zM523 945q31 0 53 -22t22 -53t-22 -53t-53 -22t-53 22t-22 53t22 53t53 22zM309 945q31 0 53 -22t22 -53t-22 -53t-53 -22t-53 22t-22 53t22 53
t53 22z" />
    <glyph glyph-name="multiply" unicode="&#xd7;" horiz-adv-x="600" 
d="M66 415l72 72l162 -162l162 162l72 -72l-163 -162l163 -162l-72 -72l-162 163l-162 -163l-72 72l162 162z" />
    <glyph glyph-name="Oslash" unicode="&#xd8;" horiz-adv-x="832" 
d="M132 122q-41 52 -61.5 117.5t-20.5 136.5q0 76 24.5 146.5t71 124.5t114.5 86.5t156 32.5q74 0 134 -23t105 -65l97 102l47 -45l-99 -105q41 -52 61.5 -117.5t20.5 -136.5q0 -76 -24.5 -146.5t-71 -124.5t-114.5 -86.5t-156 -32.5q-75 0 -134.5 23.5t-104.5 65.5
l-97 -103l-47 45zM557 573q-26 28 -61 43.5t-80 15.5q-53 0 -92 -21t-65.5 -56.5t-39.5 -81.5t-13 -97q0 -39 8 -75.5t24 -66.5zM275 179q26 -28 61 -43.5t80 -15.5q52 0 91.5 21t66 56.5t39.5 81.5t13 97q0 39 -8 76t-23 67z" />
    <glyph glyph-name="Ugrave" unicode="&#xd9;" horiz-adv-x="778" 
d="M552 752h150v-440q0 -88 -26 -150t-69 -101t-100 -57t-118 -18q-62 0 -118.5 18t-99.5 57t-69 101t-26 150v440h150v-441q0 -94 41 -142.5t122 -48.5t122 48.5t41 142.5v441zM239 935h135l88 -140h-83z" />
    <glyph glyph-name="Uacute" unicode="&#xda;" horiz-adv-x="778" 
d="M552 752h150v-440q0 -88 -26 -150t-69 -101t-100 -57t-118 -18q-62 0 -118.5 18t-99.5 57t-69 101t-26 150v440h150v-441q0 -94 41 -142.5t122 -48.5t122 48.5t41 142.5v441zM404 935h135l-140 -140h-83z" />
    <glyph glyph-name="Ucircumflex" unicode="&#xdb;" horiz-adv-x="778" 
d="M552 752h150v-440q0 -88 -26 -150t-69 -101t-100 -57t-118 -18q-62 0 -118.5 18t-99.5 57t-69 101t-26 150v440h150v-441q0 -94 41 -142.5t122 -48.5t122 48.5t41 142.5v441zM389 879l-70 -90h-92l107 146h110l107 -146h-92z" />
    <glyph glyph-name="Udieresis" unicode="&#xdc;" horiz-adv-x="778" 
d="M552 752h150v-440q0 -88 -26 -150t-69 -101t-100 -57t-118 -18q-62 0 -118.5 18t-99.5 57t-69 101t-26 150v440h150v-441q0 -94 41 -142.5t122 -48.5t122 48.5t41 142.5v441zM496 945q31 0 53 -22t22 -53t-22 -53t-53 -22t-53 22t-22 53t22 53t53 22zM282 945
q31 0 53 -22t22 -53t-22 -53t-53 -22t-53 22t-22 53t22 53t53 22z" />
    <glyph glyph-name="Yacute" unicode="&#xdd;" horiz-adv-x="611" 
d="M436 752h165l-219 -451v-301h-150v301l-222 451h175l123 -289zM321 935h135l-140 -140h-83z" />
    <glyph glyph-name="Thorn" unicode="&#xde;" horiz-adv-x="611" 
d="M83 752h150v-129h95q44 0 90.5 -11.5t84.5 -39t62 -73.5t24 -115q0 -65 -22 -110t-57.5 -73.5t-80 -41.5t-89.5 -13h-107v-146h-150v752zM317 274q37 0 61 10t37.5 26t18.5 35.5t5 38.5t-7 39t-21.5 36t-37.5 26t-55 10h-85v-221h84z" />
    <glyph glyph-name="germandbls" unicode="&#xdf;" horiz-adv-x="610" 
d="M283 453q15 0 33 1.5t33.5 10.5t25.5 28.5t10 55.5q0 27 -8.5 43.5t-21 26.5t-28 13.5t-29.5 3.5q-42 0 -63.5 -25.5t-21.5 -81.5v-529h-144v535q0 47 15 88t44.5 71t73.5 47t102 17q43 0 83 -12t71.5 -35.5t51 -59.5t19.5 -84q0 -53 -24 -92t-66 -65v-2q21 -2 44 -13
t42 -32.5t31 -54t12 -78.5q0 -50 -16.5 -93t-46.5 -74.5t-72.5 -50t-94.5 -18.5q-23 0 -38.5 2t-29.5 4v124q9 -1 16 -1.5t18 -0.5q64 0 89 29.5t25 75.5q0 41 -15 63t-36 32.5t-44.5 12.5t-39.5 2v116z" />
    <glyph glyph-name="agrave" unicode="&#xe0;" horiz-adv-x="611" 
d="M406 67h-2q-36 -47 -83.5 -64t-92.5 -17q-30 0 -62 8t-58.5 26.5t-43 48.5t-16.5 74q0 21 6 46.5t28 48.5t66 40.5t119 22.5l133 8v24q0 46 -26.5 68.5t-74.5 22.5q-45 0 -70 -20.5t-27 -55.5h-138q2 30 14.5 61.5t40.5 58t73 43.5t113 17q48 0 90 -9.5t74 -29.5
t50.5 -51.5t18.5 -75.5v-298q0 -20 2 -35t5 -29h-139v67zM400 224l-120 -11q-50 -5 -69 -20t-19 -43q0 -17 7.5 -28.5t19.5 -18.5t28.5 -10t34.5 -3q17 0 37.5 5t38.5 15.5t30 27t12 39.5v47zM161 742h135l88 -140h-83z" />
    <glyph glyph-name="aacute" unicode="&#xe1;" horiz-adv-x="611" 
d="M406 67h-2q-36 -47 -83.5 -64t-92.5 -17q-30 0 -62 8t-58.5 26.5t-43 48.5t-16.5 74q0 21 6 46.5t28 48.5t66 40.5t119 22.5l133 8v24q0 46 -26.5 68.5t-74.5 22.5q-45 0 -70 -20.5t-27 -55.5h-138q2 30 14.5 61.5t40.5 58t73 43.5t113 17q48 0 90 -9.5t74 -29.5
t50.5 -51.5t18.5 -75.5v-298q0 -20 2 -35t5 -29h-139v67zM400 224l-120 -11q-50 -5 -69 -20t-19 -43q0 -17 7.5 -28.5t19.5 -18.5t28.5 -10t34.5 -3q17 0 37.5 5t38.5 15.5t30 27t12 39.5v47zM321 742h135l-140 -140h-83z" />
    <glyph glyph-name="acircumflex" unicode="&#xe2;" horiz-adv-x="611" 
d="M406 67h-2q-36 -47 -83.5 -64t-92.5 -17q-30 0 -62 8t-58.5 26.5t-43 48.5t-16.5 74q0 21 6 46.5t28 48.5t66 40.5t119 22.5l133 8v24q0 46 -26.5 68.5t-74.5 22.5q-45 0 -70 -20.5t-27 -55.5h-138q2 30 14.5 61.5t40.5 58t73 43.5t113 17q48 0 90 -9.5t74 -29.5
t50.5 -51.5t18.5 -75.5v-298q0 -20 2 -35t5 -29h-139v67zM400 224l-120 -11q-50 -5 -69 -20t-19 -43q0 -17 7.5 -28.5t19.5 -18.5t28.5 -10t34.5 -3q17 0 37.5 5t38.5 15.5t30 27t12 39.5v47zM306 686l-70 -90h-92l107 146h110l107 -146h-92z" />
    <glyph glyph-name="atilde" unicode="&#xe3;" horiz-adv-x="611" 
d="M406 67h-2q-36 -47 -83.5 -64t-92.5 -17q-30 0 -62 8t-58.5 26.5t-43 48.5t-16.5 74q0 21 6 46.5t28 48.5t66 40.5t119 22.5l133 8v24q0 46 -26.5 68.5t-74.5 22.5q-45 0 -70 -20.5t-27 -55.5h-138q2 30 14.5 61.5t40.5 58t73 43.5t113 17q48 0 90 -9.5t74 -29.5
t50.5 -51.5t18.5 -75.5v-298q0 -20 2 -35t5 -29h-139v67zM400 224l-120 -11q-50 -5 -69 -20t-19 -43q0 -17 7.5 -28.5t19.5 -18.5t28.5 -10t34.5 -3q17 0 37.5 5t38.5 15.5t30 27t12 39.5v47zM130 603q3 20 10 41t20 38t32.5 27.5t46.5 10.5q20 0 39 -5.5t36 -12.5l33.5 -13
t29.5 -6q20 0 32 11t16 31h57q-3 -20 -10 -40.5t-20 -37.5t-32 -27.5t-46 -10.5q-20 0 -39 5.5t-36 12.5l-33.5 13t-29.5 6q-41 0 -49 -43h-57z" />
    <glyph glyph-name="adieresis" unicode="&#xe4;" horiz-adv-x="611" 
d="M406 67h-2q-36 -47 -83.5 -64t-92.5 -17q-30 0 -62 8t-58.5 26.5t-43 48.5t-16.5 74q0 21 6 46.5t28 48.5t66 40.5t119 22.5l133 8v24q0 46 -26.5 68.5t-74.5 22.5q-45 0 -70 -20.5t-27 -55.5h-138q2 30 14.5 61.5t40.5 58t73 43.5t113 17q48 0 90 -9.5t74 -29.5
t50.5 -51.5t18.5 -75.5v-298q0 -20 2 -35t5 -29h-139v67zM400 224l-120 -11q-50 -5 -69 -20t-19 -43q0 -17 7.5 -28.5t19.5 -18.5t28.5 -10t34.5 -3q17 0 37.5 5t38.5 15.5t30 27t12 39.5v47zM413 752q31 0 53 -22t22 -53t-22 -53t-53 -22t-53 22t-22 53t22 53t53 22z
M199 752q31 0 53 -22t22 -53t-22 -53t-53 -22t-53 22t-22 53t22 53t53 22z" />
    <glyph glyph-name="aring" unicode="&#xe5;" horiz-adv-x="611" 
d="M406 67h-2q-36 -47 -83.5 -64t-92.5 -17q-30 0 -62 8t-58.5 26.5t-43 48.5t-16.5 74q0 21 6 46.5t28 48.5t66 40.5t119 22.5l133 8v24q0 46 -26.5 68.5t-74.5 22.5q-45 0 -70 -20.5t-27 -55.5h-138q2 30 14.5 61.5t40.5 58t73 43.5t113 17q48 0 90 -9.5t74 -29.5
t50.5 -51.5t18.5 -75.5v-298q0 -20 2 -35t5 -29h-139v67zM400 224l-120 -11q-50 -5 -69 -20t-19 -43q0 -17 7.5 -28.5t19.5 -18.5t28.5 -10t34.5 -3q17 0 37.5 5t38.5 15.5t30 27t12 39.5v47zM257 685q0 -20 14.5 -34.5t34.5 -14.5t34.5 14.5t14.5 34.5t-14.5 34.5
t-34.5 14.5t-34.5 -14.5t-14.5 -34.5zM203 685q0 21 8 39.5t22 32.5t33 22.5t40 8.5t39.5 -8t32.5 -22.5t22.5 -33t8.5 -39.5t-8.5 -39.5t-22.5 -32.5t-32.5 -22.5t-39.5 -8.5t-40 8.5t-33 22.5t-22 33t-8 39z" />
    <glyph glyph-name="ae" unicode="&#xe6;" horiz-adv-x="944" 
d="M755 308q-2 19 -10 38.5t-22 35.5t-34 26t-46 10q-28 0 -49 -9t-36 -24t-23.5 -35t-11.5 -42h232zM385 216h-69q-43 0 -68 -5.5t-38 -14.5t-17 -21t-4 -25q0 -17 7 -28.5t19 -18.5t27 -10t31 -3q15 0 34 5t36.5 15.5t29.5 27t12 39.5v39zM61 348q2 30 14.5 61.5t40.5 58
t73 43.5t113 17q20 0 44 -3.5t48 -11t47 -19.5t42 -30q29 29 70 46.5t83 17.5q58 0 106.5 -19t83 -54.5t54 -86t19.5 -112.5v-40h-376q2 -23 10.5 -44.5t23 -38t36 -27t50.5 -10.5q33 0 60.5 15.5t42.5 45.5l140 -11q-26 -79 -92.5 -119.5t-157.5 -40.5q-37 0 -65.5 6.5
t-52.5 18.5t-44.5 29t-40.5 39q-24 -26 -45 -43.5t-45 -28.5t-52.5 -16t-65.5 -5q-30 0 -62 8t-58.5 26.5t-43 48.5t-16.5 74q0 19 6.5 47t33 54.5t79 45t144.5 18.5h77v25q0 46 -23 68.5t-66 22.5q-49 0 -75 -20.5t-28 -55.5h-132z" />
    <glyph glyph-name="ccedilla" unicode="&#xe7;" 
d="M375 317q-1 27 -9 44.5t-19.5 27t-26 13.5t-28.5 4q-33 0 -53 -15.5t-30.5 -39.5t-13.5 -52t-3 -53q0 -26 5 -51.5t16.5 -46t30.5 -33.5t47 -13q42 0 63.5 23t27.5 61l141 -5q-8 -42 -25.5 -78t-45 -62t-66.5 -40.5t-91 -14.5q-63 0 -110.5 19.5t-79 54.5t-47.5 84
t-16 108q0 62 17 113t49.5 87t78.5 56t105 20q57 0 100 -16.5t71.5 -45t43.5 -65.5t18 -78zM197 -88l66 94h68l-38 -52l2 -2q6 1 12.5 1.5t14.5 0.5q34 0 56.5 -23.5t22.5 -63.5q0 -46 -33.5 -73.5t-88.5 -27.5q-42 0 -73.5 9t-45.5 17l19 53q21 -9 37.5 -13.5t33.5 -4.5
q8 0 17.5 1t18 5t14 11.5t5.5 20.5t-10 25t-36 12q-27 0 -40 -9z" />
    <glyph glyph-name="egrave" unicode="&#xe8;" horiz-adv-x="610" 
d="M424 308q-2 19 -10 38.5t-22 35.5t-34 26t-46 10q-28 0 -49 -9t-36 -24t-23.5 -35t-11.5 -42h232zM192 216q2 -23 10.5 -44.5t23 -38t36 -27t50.5 -10.5q33 0 60.5 15.5t42.5 45.5l140 -11q-26 -79 -92.5 -119.5t-157.5 -40.5q-58 0 -106.5 19t-83 54.5t-54 85
t-19.5 111.5t19.5 112.5t54 86t83 54.5t106.5 19t106.5 -19t83 -54.5t54 -86t19.5 -112.5v-40h-376zM180 742h135l88 -140h-83z" />
    <glyph glyph-name="eacute" unicode="&#xe9;" horiz-adv-x="610" 
d="M424 308q-2 19 -10 38.5t-22 35.5t-34 26t-46 10q-28 0 -49 -9t-36 -24t-23.5 -35t-11.5 -42h232zM192 216q2 -23 10.5 -44.5t23 -38t36 -27t50.5 -10.5q33 0 60.5 15.5t42.5 45.5l140 -11q-26 -79 -92.5 -119.5t-157.5 -40.5q-58 0 -106.5 19t-83 54.5t-54 85
t-19.5 111.5t19.5 112.5t54 86t83 54.5t106.5 19t106.5 -19t83 -54.5t54 -86t19.5 -112.5v-40h-376zM340 742h135l-140 -140h-83z" />
    <glyph glyph-name="ecircumflex" unicode="&#xea;" horiz-adv-x="610" 
d="M424 308q-2 19 -10 38.5t-22 35.5t-34 26t-46 10q-28 0 -49 -9t-36 -24t-23.5 -35t-11.5 -42h232zM192 216q2 -23 10.5 -44.5t23 -38t36 -27t50.5 -10.5q33 0 60.5 15.5t42.5 45.5l140 -11q-26 -79 -92.5 -119.5t-157.5 -40.5q-58 0 -106.5 19t-83 54.5t-54 85
t-19.5 111.5t19.5 112.5t54 86t83 54.5t106.5 19t106.5 -19t83 -54.5t54 -86t19.5 -112.5v-40h-376zM305 686l-70 -90h-92l107 146h110l107 -146h-92z" />
    <glyph glyph-name="edieresis" unicode="&#xeb;" horiz-adv-x="610" 
d="M424 308q-2 19 -10 38.5t-22 35.5t-34 26t-46 10q-28 0 -49 -9t-36 -24t-23.5 -35t-11.5 -42h232zM192 216q2 -23 10.5 -44.5t23 -38t36 -27t50.5 -10.5q33 0 60.5 15.5t42.5 45.5l140 -11q-26 -79 -92.5 -119.5t-157.5 -40.5q-58 0 -106.5 19t-83 54.5t-54 85
t-19.5 111.5t19.5 112.5t54 86t83 54.5t106.5 19t106.5 -19t83 -54.5t54 -86t19.5 -112.5v-40h-376zM412 752q31 0 53 -22t22 -53t-22 -53t-53 -22t-53 22t-22 53t22 53t53 22zM198 752q31 0 53 -22t22 -53t-22 -53t-53 -22t-53 22t-22 53t22 53t53 22z" />
    <glyph glyph-name="igrave" unicode="&#xec;" horiz-adv-x="278" 
d="M67 514h144v-514h-144v514zM-5 742h135l88 -140h-83z" />
    <glyph glyph-name="iacute" unicode="&#xed;" horiz-adv-x="278" 
d="M67 514h144v-514h-144v514zM149 742h135l-140 -140h-83z" />
    <glyph glyph-name="icircumflex" unicode="&#xee;" horiz-adv-x="278" 
d="M67 514h144v-514h-144v514zM139 686l-70 -90h-92l107 146h110l107 -146h-92z" />
    <glyph glyph-name="idieresis" unicode="&#xef;" horiz-adv-x="278" 
d="M67 514h144v-514h-144v514zM246 752q31 0 53 -22t22 -53t-22 -53t-53 -22t-53 22t-22 53t22 53t53 22zM32 752q31 0 53 -22t22 -53t-22 -53t-53 -22t-53 22t-22 53t22 53t53 22z" />
    <glyph glyph-name="eth" unicode="&#xf0;" horiz-adv-x="610" 
d="M418 256q0 34 -8 62.5t-22.5 49.5t-35.5 32.5t-46 11.5q-26 0 -47 -11.5t-36 -32.5t-23 -49.5t-8 -62.5q0 -33 8 -61t23 -49t36 -32.5t47 -11.5q25 0 46 11.5t35.5 32.5t22.5 49t8 61zM103 633l120 53q-23 18 -46 33t-50 30l118 57l45 -33.5t46 -36.5l125 55l50 -53
l-117 -52q44 -41 76.5 -84t54.5 -90.5t32.5 -100.5t10.5 -114q0 -63 -14 -119.5t-45 -99t-81.5 -67.5t-122.5 -25q-58 0 -106.5 19t-83 54.5t-54 85t-19.5 111.5t18.5 112.5t51 86t76.5 54.5t96 19q33 0 59 -8t52 -26h2q-17 33 -47 71.5t-68 70.5l-123 -54z" />
    <glyph glyph-name="ntilde" unicode="&#xf1;" horiz-adv-x="610" 
d="M397 313q0 28 -7.5 47t-20.5 30.5t-29 16.5t-33 5q-44 0 -69 -33.5t-25 -86.5v-292h-144v514h138v-67h2q32 47 70 64t82 17q46 0 80 -14t56.5 -38.5t33 -57t10.5 -69.5v-349h-144v313zM129 603q3 20 10 41t20 38t32.5 27.5t46.5 10.5q20 0 39 -5.5t36 -12.5l33.5 -13
t29.5 -6q20 0 32 11t16 31h57q-3 -20 -10 -40.5t-20 -37.5t-32 -27.5t-46 -10.5q-20 0 -39 5.5t-36 12.5l-33.5 13t-29.5 6q-41 0 -49 -43h-57z" />
    <glyph glyph-name="ograve" unicode="&#xf2;" horiz-adv-x="610" 
d="M418 257q0 67 -28 111t-85 44t-85 -44t-28 -111t28 -111t85 -44t85 44t28 111zM568 257q0 -62 -19.5 -112t-54 -85.5t-83 -54.5t-106.5 -19t-106.5 19t-83 54.5t-54 85.5t-19.5 112t19.5 112t54 85.5t83 54.5t106.5 19t106.5 -19t83 -54.5t54 -85.5t19.5 -112zM170 742
h135l88 -140h-83z" />
    <glyph glyph-name="oacute" unicode="&#xf3;" horiz-adv-x="610" 
d="M418 257q0 67 -28 111t-85 44t-85 -44t-28 -111t28 -111t85 -44t85 44t28 111zM568 257q0 -62 -19.5 -112t-54 -85.5t-83 -54.5t-106.5 -19t-106.5 19t-83 54.5t-54 85.5t-19.5 112t19.5 112t54 85.5t83 54.5t106.5 19t106.5 -19t83 -54.5t54 -85.5t19.5 -112zM305 742
h135l-140 -140h-83z" />
    <glyph glyph-name="ocircumflex" unicode="&#xf4;" horiz-adv-x="610" 
d="M418 257q0 67 -28 111t-85 44t-85 -44t-28 -111t28 -111t85 -44t85 44t28 111zM568 257q0 -62 -19.5 -112t-54 -85.5t-83 -54.5t-106.5 -19t-106.5 19t-83 54.5t-54 85.5t-19.5 112t19.5 112t54 85.5t83 54.5t106.5 19t106.5 -19t83 -54.5t54 -85.5t19.5 -112zM305 686
l-70 -90h-92l107 146h110l107 -146h-92z" />
    <glyph glyph-name="otilde" unicode="&#xf5;" horiz-adv-x="610" 
d="M418 257q0 67 -28 111t-85 44t-85 -44t-28 -111t28 -111t85 -44t85 44t28 111zM568 257q0 -62 -19.5 -112t-54 -85.5t-83 -54.5t-106.5 -19t-106.5 19t-83 54.5t-54 85.5t-19.5 112t19.5 112t54 85.5t83 54.5t106.5 19t106.5 -19t83 -54.5t54 -85.5t19.5 -112zM129 603
q3 20 10 41t20 38t32.5 27.5t46.5 10.5q20 0 39 -5.5t36 -12.5l33.5 -13t29.5 -6q20 0 32 11t16 31h57q-3 -20 -10 -40.5t-20 -37.5t-32 -27.5t-46 -10.5q-20 0 -39 5.5t-36 12.5l-33.5 13t-29.5 6q-41 0 -49 -43h-57z" />
    <glyph glyph-name="odieresis" unicode="&#xf6;" horiz-adv-x="610" 
d="M418 257q0 67 -28 111t-85 44t-85 -44t-28 -111t28 -111t85 -44t85 44t28 111zM568 257q0 -62 -19.5 -112t-54 -85.5t-83 -54.5t-106.5 -19t-106.5 19t-83 54.5t-54 85.5t-19.5 112t19.5 112t54 85.5t83 54.5t106.5 19t106.5 -19t83 -54.5t54 -85.5t19.5 -112zM412 752
q31 0 53 -22t22 -53t-22 -53t-53 -22t-53 22t-22 53t22 53t53 22zM198 752q31 0 53 -22t22 -53t-22 -53t-53 -22t-53 22t-22 53t22 53t53 22z" />
    <glyph glyph-name="divide" unicode="&#xf7;" horiz-adv-x="600" 
d="M216 46q0 35 24.5 59.5t59.5 24.5t59.5 -24.5t24.5 -59.5t-24.5 -59.5t-59.5 -24.5t-59.5 24.5t-24.5 59.5zM216 460q0 35 24.5 59.5t59.5 24.5t59.5 -24.5t24.5 -59.5t-24.5 -59.5t-59.5 -24.5t-59.5 24.5t-24.5 59.5zM47 305h506v-104h-506v104z" />
    <glyph glyph-name="oslash" unicode="&#xf8;" horiz-adv-x="610" 
d="M99 78q-27 35 -42 80t-15 99q0 62 19.5 112t54 85.5t83 54.5t106.5 19q50 0 92.5 -14t74.5 -40l69 73l39 -37l-69 -74q27 -35 42 -80t15 -99q0 -62 -19.5 -112t-54 -85.5t-83 -54.5t-106.5 -19q-99 0 -167 54l-69 -73l-39 37zM381 379q-11 13 -30 23t-46 10
q-57 0 -85 -44t-28 -111q0 -41 9 -71zM227 135q14 -14 33 -23.5t45 -9.5q57 0 85 44t28 111q0 20 -2 37t-7 34z" />
    <glyph glyph-name="ugrave" unicode="&#xf9;" horiz-adv-x="610" 
d="M403 67h-2q-32 -47 -70 -64t-82 -17q-47 0 -80.5 14t-56 38.5t-33 57t-10.5 69.5v349h144v-313q0 -28 7.5 -47t20.5 -30.5t29 -16.5t33 -5q44 0 69 33.5t25 86.5v292h144v-514h-138v67zM155 742h135l88 -140h-83z" />
    <glyph glyph-name="uacute" unicode="&#xfa;" horiz-adv-x="610" 
d="M403 67h-2q-32 -47 -70 -64t-82 -17q-47 0 -80.5 14t-56 38.5t-33 57t-10.5 69.5v349h144v-313q0 -28 7.5 -47t20.5 -30.5t29 -16.5t33 -5q44 0 69 33.5t25 86.5v292h144v-514h-138v67zM320 742h135l-140 -140h-83z" />
    <glyph glyph-name="ucircumflex" unicode="&#xfb;" horiz-adv-x="610" 
d="M403 67h-2q-32 -47 -70 -64t-82 -17q-47 0 -80.5 14t-56 38.5t-33 57t-10.5 69.5v349h144v-313q0 -28 7.5 -47t20.5 -30.5t29 -16.5t33 -5q44 0 69 33.5t25 86.5v292h144v-514h-138v67zM305 686l-70 -90h-92l107 146h110l107 -146h-92z" />
    <glyph glyph-name="udieresis" unicode="&#xfc;" horiz-adv-x="610" 
d="M403 67h-2q-32 -47 -70 -64t-82 -17q-47 0 -80.5 14t-56 38.5t-33 57t-10.5 69.5v349h144v-313q0 -28 7.5 -47t20.5 -30.5t29 -16.5t33 -5q44 0 69 33.5t25 86.5v292h144v-514h-138v67zM412 752q31 0 53 -22t22 -53t-22 -53t-53 -22t-53 22t-22 53t22 53t53 22zM198 752
q31 0 53 -22t22 -53t-22 -53t-53 -22t-53 22t-22 53t22 53t53 22z" />
    <glyph glyph-name="yacute" unicode="&#xfd;" 
d="M203 0l-193 514h158l109 -340h2l109 340h158l-278 -738h-151zM293 742h135l-140 -140h-83z" />
    <glyph glyph-name="thorn" unicode="&#xfe;" horiz-adv-x="667" 
d="M78 752h144v-303h2q25 39 68 59t93 20q54 0 98 -22.5t75.5 -60t49 -86.5t17.5 -103t-16.5 -102.5t-47 -86t-75 -59.5t-99.5 -22q-50 0 -88.5 18t-74.5 66h-2v-294h-144v976zM475 260q0 30 -8.5 57.5t-25 48.5t-40.5 33.5t-56 12.5q-31 0 -54.5 -12t-40 -33t-25 -49
t-8.5 -60q0 -29 8 -56t24.5 -48t41 -33.5t58.5 -12.5q31 0 54.5 13t39.5 34t24 48.5t8 56.5z" />
    <glyph glyph-name="ydieresis" unicode="&#xff;" 
d="M203 0l-193 514h158l109 -340h2l109 340h158l-278 -738h-151zM385 752q31 0 53 -22t22 -53t-22 -53t-53 -22t-53 22t-22 53t22 53t53 22zM171 752q31 0 53 -22t22 -53t-22 -53t-53 -22t-53 22t-22 53t22 53t53 22z" />
    <glyph glyph-name="exclam" unicode="!" horiz-adv-x="332" 
d="M82 72q0 35 24.5 59.5t59.5 24.5t59.5 -24.5t24.5 -59.5t-24.5 -59.5t-59.5 -24.5t-59.5 24.5t-24.5 59.5zM94 752h144v-516h-144v516z" />
    <glyph glyph-name="fraction" unicode="&#x2215;" horiz-adv-x="167" 
d="M-171 -12h86l423 764h-82z" />
    <glyph glyph-name="fi" unicode="&#xfb01;" horiz-adv-x="611" 
d="M84 0h144v404h83v110h-83v80q0 22 12 32t31 10h40v122h-28q-48 0 -85 -7.5t-62.5 -27t-38.5 -54t-13 -88.5v-67h-73v-110h73v-404zM400 0h144v514h-144v-514zM472 590q17 0 32.5 7t27 19t18 27t6.5 32t-7 32t-19 26.5t-27 18t-31 6.5q-18 0 -33.5 -7.5t-26.5 -19.5
t-17.5 -27t-6.5 -31q0 -15 6.5 -30t17.5 -26.5t26.5 -19t33.5 -7.5z" />
    <glyph glyph-name="fl" unicode="&#xfb02;" horiz-adv-x="611" 
d="M84 0h144v404h83v110h-83v80q0 22 12 32t31 10h40v122h-28q-48 0 -85 -7.5t-62.5 -27t-38.5 -54t-13 -88.5v-67h-73v-110h73v-404zM400 0h144v752h-144v-752z" />
    <glyph glyph-name="breve" unicode="&#x2d8;" horiz-adv-x="278" 
d="M300 740q-4 -64 -48 -102.5t-113 -38.5t-113 38.5t-48 102.5h57q8 -38 34.5 -56.5t69.5 -18.5q88 0 105 75h56z" />
    <glyph glyph-name="dotaccent" unicode="&#x2d9;" horiz-adv-x="278" 
d="M64 677q0 31 22 53t53 22t53 -22t22 -53t-22 -53t-53 -22t-53 22t-22 53z" />
    <glyph glyph-name="ring" unicode="&#x2da;" horiz-adv-x="278" 
d="M90 685q0 -20 14.5 -34.5t34.5 -14.5t34.5 14.5t14.5 34.5t-14.5 34.5t-34.5 14.5t-34.5 -14.5t-14.5 -34.5zM36 685q0 21 8 39.5t22 32.5t33 22.5t40 8.5t39.5 -8t32.5 -22.5t22.5 -33t8.5 -39.5t-8.5 -39.5t-22.5 -32.5t-32.5 -22.5t-39.5 -8.5t-40 8.5t-33 22.5
t-22 33t-8 39z" />
    <glyph glyph-name="hungarumlaut" unicode="&#x2dd;" horiz-adv-x="278" 
d="M224 742h135l-140 -140h-83zM14 742h135l-140 -140h-83z" />
    <glyph glyph-name="ogonek" unicode="&#x2db;" horiz-adv-x="278" 
d="M191 0q-33 -33 -52 -60t-19 -47q0 -22 13.5 -32.5t30.5 -10.5q13 0 23 1.5t19 3.5l8 -53q-15 -5 -32 -8.5t-36 -3.5t-38.5 5t-36 15.5t-27 27t-10.5 40.5q0 34 30.5 62.5t78.5 59.5h48z" />
    <glyph glyph-name="caron" unicode="&#x2c7;" horiz-adv-x="278" 
d="M209 742h92l-107 -146h-110l-107 146h92l70 -90z" />
    <glyph glyph-name="Lslash" unicode="&#x141;" 
d="M-2 325l85 50v377h150v-289l203 119v-115l-203 -119v-208h289v-140h-439v260l-85 -50v115z" />
    <glyph glyph-name="dotlessi" unicode="&#x131;" horiz-adv-x="278" 
d="M67 514h144v-514h-144v514z" />
    <glyph glyph-name="lslash" unicode="&#x142;" horiz-adv-x="278" 
d="M-6 364l73 45v343h144v-254l73 45v-102l-73 -45v-396h-144v307l-73 -45v102z" />
    <glyph glyph-name="minus" unicode="&#x2212;" horiz-adv-x="600" 
d="M47 201h506v104h-506v-104z" />
    <glyph glyph-name="nonbreakingspace" horiz-adv-x="278" 
 />
    </font>
</defs>
</svg>
